<svg xmlns="http://www.w3.org/2000/svg" xmlns:xlink="http://www.w3.org/1999/xlink" viewBox="0 0 412.7 411.75"><defs><style>.cls-1{fill:url(#Unbenannter_Verlauf_9);}.cls-2{fill:#ccc;}.cls-3{fill:#b3b3b3;}.cls-4{fill:url(#Unbenannter_Verlauf_7);}.cls-5{fill:#ededed;}.cls-6{fill:#999;}.cls-7{fill:#20a4f3;}.cls-15,.cls-7,.cls-9{opacity:0.2;}.cls-13,.cls-15,.cls-17,.cls-7,.cls-8,.cls-9{isolation:isolate;}.cls-8{opacity:0.5;fill:url(#Unbenannter_Verlauf_9-2);}.cls-11,.cls-13,.cls-9{fill:#011627;}.cls-10,.cls-15{fill:#fff;}.cls-12{fill:#ffb8b8;}.cls-13{opacity:0.1;}.cls-14{fill:#dd1843;}.cls-16{fill:#ddd;}.cls-17{opacity:0.3;fill:url(#Unbenannter_Verlauf_9-3);}</style><linearGradient id="Unbenannter_Verlauf_9" x1="-3328.98" y1="59.57" x2="-3358.58" y2="117.67" gradientTransform="translate(-3266.95 408.69) rotate(180)" gradientUnits="userSpaceOnUse"><stop offset="0" stop-color="#fff" stop-opacity="0"/><stop offset="1" stop-opacity="0.3"/></linearGradient><linearGradient id="Unbenannter_Verlauf_7" x1="-3564.87" y1="-6.88" x2="-3607.46" y2="76.71" gradientTransform="translate(-3266.95 408.69) rotate(180)" gradientUnits="userSpaceOnUse"><stop offset="0" stop-color="#fff" stop-opacity="0"/><stop offset="0.8" stop-opacity="0.3"/></linearGradient><linearGradient id="Unbenannter_Verlauf_9-2" x1="-3305.97" y1="51.13" x2="-3333.88" y2="105.91" xlink:href="#Unbenannter_Verlauf_9"/><linearGradient id="Unbenannter_Verlauf_9-3" x1="-3448.06" y1="293.5" x2="-3499.08" y2="393.62" xlink:href="#Unbenannter_Verlauf_9"/></defs><title>howto-home3</title><g id="Ebene_2" data-name="Ebene 2"><g id="Layer_1" data-name="Layer 1"><polygon id="Vase_shadow" data-name="Vase shadow" class="cls-1" points="0 308.75 92.1 364.45 154.6 329.55 58.3 274.05 0 308.75"/><path class="cls-2" d="M55.6,109.75v25.1c0,6-4,6.8-6.5,5.4l-6.2-3.5c-2.5-1.4-4.6-.4-4.6,2.4s2.1,6.1,4.6,7.6l5.5,3.1A12.82,12.82,0,0,1,54.9,161h0a8.37,8.37,0,0,1-12.5,7.3l-20.9-11.9c-3.6-2.1-6.6-.5-6.6,3.4s3,8.8,6.7,10.9l26.8,15.2a13.2,13.2,0,0,1,6.7,11.5h0a5.24,5.24,0,0,1-7.8,4.6l-12.4-7c-2.4-1.4-4.4-.4-4.4,2.2a9.37,9.37,0,0,0,4.4,7.2l13.2,7.5A13.91,13.91,0,0,1,55.2,224v5.6a4.31,4.31,0,0,1-6.4,3.8h0c-3.6-2.1-6.6-.5-6.6,3.4s3,8.8,6.7,10.9l.8.4a11.26,11.26,0,0,1,5.7,9.8v3a13.71,13.71,0,0,0,7,11.9l83.7,47.5a4.13,4.13,0,0,0,6.2-3.6l-1.2-158.9a8,8,0,0,0-4.2-7.1L64.6,104C60.3,101.15,55.6,104.35,55.6,109.75Z"/><path class="cls-2" d="M26.9,194.85a9,9,0,0,0-4.4-7.1l-3.9-2.2c-2.4-1.4-4.3-.4-4.3,2.2a9,9,0,0,0,4.4,7.1l3.9,2.2C25,198.45,26.9,197.45,26.9,194.85Z"/><path class="cls-2" d="M223.7,1,62.6,94a14,14,0,0,0-7,12.1v165.6a7,7,0,0,0,10.5,6.1l25.2-14.6v30a3,3,0,0,0,5.6,1.5l30.2-52.1,100-57.8a14,14,0,0,0,7-12.1V7.05A6.93,6.93,0,0,0,223.7,1Z"/><polygon class="cls-2" points="180.6 314.55 165.7 298.95 319.6 52.15 231.2 1.25 60.6 101.55 59.1 277.75 147.4 328.35 147.9 321.45 182.2 340.15 180.6 314.55"/><polygon class="cls-3" points="180.6 314.55 182.2 340.15 158.6 327.25 180.6 314.55"/><polygon id="Vase_shadow-2" data-name="Vase shadow" class="cls-4" points="250.9 386.25 290.4 411.75 389.7 357.05 309.2 351.55 250.9 386.25"/><path class="cls-5" d="M313,52.35l-161.1,93a14,14,0,0,0-7,12.1v165.6a7,7,0,0,0,10.5,6.1l25.2-14.6v23a3,3,0,0,0,5.6,1.5L216.4,294l100-57.8a14,14,0,0,0,7-12.1V58.45A6.93,6.93,0,0,0,313,52.35Z"/><polygon class="cls-3" points="296.7 103.05 278.8 113.45 278.8 134.05 296.7 144.35 296.7 103.05"/><polygon class="cls-6" points="296.7 144.35 278.8 134.05 278.8 154.65 278.8 154.65 296.7 144.35"/><polygon class="cls-7" points="296.7 103.05 296.7 144.35 278.8 154.65 278.8 113.45 296.7 103.05"/><polygon class="cls-3" points="261 123.75 243.1 134.05 243.1 154.65 261 164.95 261 123.75"/><polygon class="cls-6" points="261 164.95 243.1 154.65 243.1 175.25 243.1 175.25 261 164.95"/><polygon class="cls-7" points="261 123.75 261 164.95 243.1 175.25 243.1 134.05 261 123.75"/><polygon class="cls-3" points="225.3 144.35 207.4 154.65 207.4 175.25 225.3 185.55 225.3 144.35"/><polygon class="cls-6" points="225.3 185.55 207.4 175.25 207.4 195.85 207.4 195.85 225.3 185.55"/><polygon class="cls-7" points="225.3 144.35 225.3 185.55 207.4 195.85 207.4 154.65 225.3 144.35"/><polygon class="cls-3" points="189.5 164.95 171.7 175.25 171.7 195.85 189.5 206.15 189.5 164.95"/><polygon class="cls-6" points="189.5 206.15 171.7 195.85 171.7 216.55 171.7 216.55 189.5 206.15"/><polygon class="cls-7" points="189.5 164.95 189.5 206.15 171.7 216.55 171.7 175.25 189.5 164.95"/><polygon class="cls-3" points="296.7 163.05 278.8 173.45 278.8 194.05 296.7 204.35 296.7 163.05"/><polygon class="cls-6" points="296.7 204.35 278.8 194.05 278.8 214.65 278.8 214.65 296.7 204.35"/><polygon class="cls-7" points="296.7 163.05 296.7 204.35 278.8 214.65 278.8 173.45 296.7 163.05"/><polygon class="cls-3" points="261 183.75 243.1 194.05 243.1 214.65 261 224.95 261 183.75"/><polygon class="cls-6" points="261 224.95 243.1 214.65 243.1 235.25 243.1 235.25 261 224.95"/><polygon class="cls-7" points="261 183.75 261 224.95 243.1 235.25 243.1 194.05 261 183.75"/><polygon class="cls-3" points="225.3 204.35 207.4 214.65 207.4 235.25 225.3 245.55 225.3 204.35"/><polygon class="cls-6" points="225.3 245.55 207.4 235.25 207.4 255.85 207.4 255.85 225.3 245.55"/><polygon class="cls-7" points="225.3 204.35 225.3 245.55 207.4 255.85 207.4 214.65 225.3 204.35"/><polygon class="cls-3" points="189.5 224.95 171.7 235.25 171.7 255.85 189.5 266.15 189.5 224.95"/><polygon class="cls-6" points="189.5 266.15 171.7 255.85 171.7 276.55 171.7 276.55 189.5 266.15"/><polygon class="cls-7" points="189.5 224.95 189.5 266.15 171.7 276.55 171.7 235.25 189.5 224.95"/><path class="cls-3" d="M118.1,301.45v-61.2a7.82,7.82,0,0,0-4-6.9l-25.7-14.8a4,4,0,0,0-6,3.5V281Z"/><polygon class="cls-2" points="118.1 301.35 82.4 280.75 73.5 285.95 109.2 306.45 118.1 301.35"/><polygon class="cls-3" points="109.2 311.75 73.5 291.15 73.5 285.95 109.2 306.45 109.2 311.75"/><polygon class="cls-2" points="109.2 311.75 73.5 291.15 64.5 296.35 100.2 316.75 109.2 311.75"/><polygon class="cls-3" points="100.2 322.15 64.5 301.55 64.5 296.35 100.2 316.75 100.2 322.15"/><polygon class="cls-5" points="118.1 301.35 109.2 306.45 109.2 311.75 100.2 316.75 100.2 322.15 118.1 311.75 118.1 301.35"/><polygon id="Vase_shadow-3" data-name="Vase shadow" class="cls-8" points="6.8 336.15 38 357.05 100.2 322.15 64.5 301.55 6.8 336.15"/><path class="cls-6" d="M118.1,240.15a7.82,7.82,0,0,0-4-6.9l-25.7-14.8a4,4,0,0,0-6,3.5v58.9l35.7-20.4Z"/><path class="cls-9" d="M118.1,301.45v-61.2a7.82,7.82,0,0,0-4-6.9l-25.7-14.8a4,4,0,0,0-6,3.5V281Z"/><path class="cls-10" d="M112.5,255.65c-.4-.2-.7,0-.7.6v14.4a1.75,1.75,0,0,0,.7,1.4c.4.2.7,0,.7-.6v-14.4A1.61,1.61,0,0,0,112.5,255.65Z"/><path class="cls-11" d="M362.3,272.15s16.4-6.1,11.6,2.2-28.5,16-36.3,16.9-13.7,7.8-13.7,7.8a19.83,19.83,0,0,1,14.4-14.5C350.7,281.15,364.1,273.35,362.3,272.15Z"/><g id="Head"><path class="cls-12" d="M363.1,272.15s-3.4,7.1-25.3,13.1l-2.7-3.5s-12.1,6.2-22.6-11-5.2-19.3-10.8-31.5c-10.9-23.6,37.5-59.2,69.6-25,8.2,8.7,8.7,37.4-11,55.2A2.68,2.68,0,0,0,363.1,272.15Z"/><path class="cls-11" d="M301.7,239.25s5.4,10.3,9.4,12.4c5.7,3,6.6,19.6,8,5.2l.5-.8a3.75,3.75,0,0,1,5.7-1.1h0a4.69,4.69,0,0,1,.9,6.3h0a3.3,3.3,0,0,0,.3,4l4.8,5.6a14.63,14.63,0,0,0,16.9,3.9l12-5.2s17.5-8.6,16.3-36.1Z"/><path id="Face_Shadow" data-name="Face Shadow" class="cls-13" d="M311.1,251.65s4.9,11.1,4.5,14.8,2.1,11,2.1,11,7.2,8.1,17.4,4.3l2.7,3.5s11.9-2.7,19.8-8a11.29,11.29,0,0,1-3.6-5.1s-13.8,9.1-22.7-1.3l-4.8-5.6a3.4,3.4,0,0,1-.3-4c1.5-2,.7-6.1-2.3-7s-4.8,2.7-4.8,2.7l-1,5.6C318.2,262.45,313.8,251.75,311.1,251.65Z"/></g><g id="Hat"><path class="cls-14" d="M310.1,245l-16.8-9.6a10.91,10.91,0,0,1,0-19h0a33.42,33.42,0,0,1,33.5,0l16.5,9.7Z"/><path class="cls-13" d="M343.3,225.85l-16.5-9.7a33.6,33.6,0,0,0-19.5-4.4,41.52,41.52,0,0,0-6,2.9h0a14.91,14.91,0,0,0-3.3,23.2l12.1,6.9Z"/><path class="cls-14" d="M365,206.25c14.5,13.4,18.1,31.8,2.3,40.9s-41.6,9.1-57.5,0-12.2-27.5,2.3-40.9S350.4,192.85,365,206.25Z"/><path class="cls-15" d="M365,206.25c-9.9-9.2-24.1-12.1-36.7-8.7a39.12,39.12,0,0,1,31.1,9.8c14.5,13.4,18.1,31.8,2.3,40.9a49,49,0,0,1-13.3,5.1,53.88,53.88,0,0,0,18.9-6.1C383.1,238.05,379.5,219.65,365,206.25Z"/></g><path class="cls-11" d="M412.7,298.75a26.41,26.41,0,0,0-13.2-22.9h0a25.68,25.68,0,0,0-10-3.3l-15.1-1.9-44.7,21.9h0a37.58,37.58,0,0,0-23.6,33.3c-.3,8,.2,16.3-.3,24.7a8.91,8.91,0,0,0,4.8,8.4h0c23.6,11.7,51.5,12.1,75.1.3,1.3-.7,2.7-1.4,3.9-2.1,15.4-8.9,23.1-20.6,23.1-32.3h0v-26.1Z"/><path class="cls-2" d="M345.7,116.55l54.5,31.6a6,6,0,0,1,3,5.2v50.9a3,3,0,0,1-4.5,2.6l-10.8-6.2v9.8a1.27,1.27,0,0,1-2.4.6l-12.9-19.3-28.3-16.5a6,6,0,0,1-3-5.2v-50.9A2.9,2.9,0,0,1,345.7,116.55Z"/><path class="cls-5" d="M343.7,117.55l54.5,31.6a6,6,0,0,1,3,5.2v50.9a3,3,0,0,1-4.5,2.6l-10.8-6.2v9.8a1.27,1.27,0,0,1-2.4.6l-12.9-19.3-28.3-16.5a6,6,0,0,1-3-5.2v-50.9A2.9,2.9,0,0,1,343.7,117.55Z"/><path class="cls-5" d="M233.5,9.65a11.87,11.87,0,0,0-10.4,0L74.3,95.25c-2.9,1.6-2.9,4.4,0,6l65.2,37.9a11.24,11.24,0,0,0,10.4,0L299,53.35c2.9-1.6,2.9-4.3,0-6Z"/><path class="cls-16" d="M223.1,15.65,74.3,101.25h0l65.2,37.9a11.24,11.24,0,0,0,10.4,0L299,53.35l-65.5-37.7A11.24,11.24,0,0,0,223.1,15.65Z"/><path id="Vase_shadow-4" data-name="Vase shadow" class="cls-17" d="M113.2,79l73.5,39.1L299,53.35l-65-37.3a11.28,11.28,0,0,0-11.5.1Z"/></g></g></svg>