<svg xmlns="http://www.w3.org/2000/svg" xmlns:xlink="http://www.w3.org/1999/xlink" viewBox="0 0 304.44 427.83"><defs><style>.cls-1{opacity:0.2;fill:url(#Unbenannter_Verlauf);}.cls-1,.cls-8{isolation:isolate;}.cls-2{fill:#ccc;}.cls-3{fill:#ededed;}.cls-4{fill:#fff;}.cls-5{fill:url(#Unbenannter_Verlauf_2);}.cls-6{fill:#b3b3b3;}.cls-7{fill:#f2f2f2;}.cls-8{opacity:0.1;}.cls-9{stroke:#f2f2f2;stroke-miterlimit:10;stroke-width:0.75px;fill:url(#Unbenannter_Verlauf_3);}.cls-10{fill:#011627;}.cls-11{fill:#dd1843;}</style><linearGradient id="Unbenannter_Verlauf" x1="130.28" y1="-6.05" x2="159.12" y2="40.1" gradientTransform="matrix(1, 0, 0, -1, 0, 415.65)" gradientUnits="userSpaceOnUse"><stop offset="0" stop-color="#fff" stop-opacity="0"/><stop offset="0.57" stop-opacity="0.5"/></linearGradient><linearGradient id="Unbenannter_Verlauf_2" x1="-1181.2" y1="50.59" x2="-1203.71" y2="94.76" gradientTransform="translate(-1088.95 415.65) rotate(180)" gradientUnits="userSpaceOnUse"><stop offset="0" stop-color="#fff" stop-opacity="0"/><stop offset="1" stop-opacity="0.3"/></linearGradient><linearGradient id="Unbenannter_Verlauf_3" x1="130.32" y1="157.44" x2="160.59" y2="86.13" gradientTransform="matrix(1, 0, 0, -1, 0, 415.65)" gradientUnits="userSpaceOnUse"><stop offset="0.47" stop-color="#fff" stop-opacity="0"/><stop offset="1" stop-opacity="0.3"/></linearGradient></defs><title>howto-home1</title><g id="Ebene_2" data-name="Ebene 2"><g id="Layer_1" data-name="Layer 1"><g id="Keyboard"><polygon class="cls-1" points="196.2 398.73 145.9 427.83 93.2 398.53 142.6 369.73 196.2 398.73"/><path class="cls-2" d="M288.8,343.93h0V341l-3.6-.3-46-26.6a4.07,4.07,0,0,0-4,0l-95.8,55.3-7.4,2.5v2.9h0a2,2,0,0,0,1,1.8l48.6,28.1a4.07,4.07,0,0,0,4,0l102.1-59A1.77,1.77,0,0,0,288.8,343.93Z"/><path class="cls-3" d="M280.8,327.43l-4.5,2.6a4.71,4.71,0,0,1-4.6,0l-.8-.5a2.07,2.07,0,0,1,0-3.6L291.6,314a4.22,4.22,0,0,0,0-7.3l-.2-.1a7.58,7.58,0,0,0-7.7,0l-24.3,14a4.07,4.07,0,0,1-4,0l-1.7-1a2.15,2.15,0,0,1,0-3.7l8.2-4.7a3.29,3.29,0,0,0,0-5.7h0a6.59,6.59,0,0,0-6.9,0l-10,5.8a6,6,0,0,1-5.8,0h0a4.07,4.07,0,0,0-4,0l-102.2,59a2.06,2.06,0,0,0,0,3.5l48.6,28.1a4.07,4.07,0,0,0,4,0l102.1-59a2.06,2.06,0,0,0,0-3.5l-2.3-1.3a2,2,0,0,1,0-3.5l2.9-1.7a3.09,3.09,0,0,0,0-5.3h0A6.81,6.81,0,0,0,280.8,327.43Z"/><path class="cls-4" d="M234.2,332.53l3-1.7a1,1,0,0,0,0-1.7l-3.6-2.1a.91.91,0,0,0-1,0l-3,1.7a1,1,0,0,0,0,1.8l3.6,2.1A3.4,3.4,0,0,0,234.2,332.53Z"/><path class="cls-4" d="M177.9,363.23l-3.6-2.1a.91.91,0,0,0-1,0l-4.3,2.5a1,1,0,0,0,0,1.8l3.6,2.1a.91.91,0,0,0,1,0l4.3-2.5A1,1,0,0,0,177.9,363.23Z"/><path class="cls-4" d="M164.7,366l-4,2.3a1,1,0,0,0,0,1.8l3.6,2.1a.91.91,0,0,0,1,0l4-2.3a1,1,0,0,0,0-1.8l-3.6-2.1A.9.9,0,0,0,164.7,366Z"/><path class="cls-4" d="M152.8,374.73l3.6,2.1a.91.91,0,0,0,1,0l3.8-2.2a1,1,0,0,0,0-1.8l-3.6-2.1a.91.91,0,0,0-1,0l-3.8,2.2A1,1,0,0,0,152.8,374.73Z"/><path class="cls-4" d="M207.7,346l-3.6-2.1a.91.91,0,0,0-1,0l-3.5,2a1,1,0,0,0,0,1.8l3.6,2.1a.91.91,0,0,0,1,0l3.5-2A1,1,0,0,0,207.7,346Z"/><path class="cls-4" d="M230,333.13l-3.6-2.1a.91.91,0,0,0-1,0l-3.2,1.8a1,1,0,0,0,0,1.8l3.6,2.1a.91.91,0,0,0,1,0l3.1-1.8A1.08,1.08,0,0,0,230,333.13Z"/><path class="cls-4" d="M244.7,324.63l-3.6-2.1a.91.91,0,0,0-1,0l-3.3,1.9a1,1,0,0,0,0,1.8l3.6,2.1a.91.91,0,0,0,1,0l3.3-1.9A1.12,1.12,0,0,0,244.7,324.63Z"/><path class="cls-4" d="M222.6,337.43l-3.6-2.1a.91.91,0,0,0-1,0l-3.4,2a1,1,0,0,0,0,1.8l3.6,2.1a.91.91,0,0,0,1,0l3.4-2A1,1,0,0,0,222.6,337.43Z"/><path class="cls-4" d="M215,341.73l-3.6-2.1a.91.91,0,0,0-1,0l-3.1,1.8a1,1,0,0,0,0,1.8l3.6,2.1a.91.91,0,0,0,1,0l3.1-1.8A1,1,0,0,0,215,341.73Z"/><path class="cls-4" d="M200,350.43l-3.6-2.1a.91.91,0,0,0-1,0l-3.9,2.2a1,1,0,0,0,0,1.8l3.6,2.1a.91.91,0,0,0,1,0l3.9-2.2A1,1,0,0,0,200,350.43Z"/><path class="cls-4" d="M173.7,371.23l-4,2.3a1,1,0,0,0,0,1.8l3.6,2.1a.91.91,0,0,0,1,0l4-2.3a1,1,0,0,0,0-1.8l-3.6-2.1A.91.91,0,0,0,173.7,371.23Z"/><path class="cls-4" d="M161.7,379.83l3.6,2.1a.91.91,0,0,0,1,0l3.8-2.2a1,1,0,0,0,0-1.8l-3.6-2.1a.91.91,0,0,0-1,0l-3.8,2.2A1,1,0,0,0,161.7,379.83Z"/><path class="cls-4" d="M253.6,329.83l-3.6-2.1a.91.91,0,0,0-1,0l-3.3,1.9a1,1,0,0,0,0,1.8l3.6,2.1a.91.91,0,0,0,1,0l3.3-1.9A1,1,0,0,0,253.6,329.83Z"/><path class="cls-4" d="M243.1,337.63l3-1.7a1,1,0,0,0,0-1.7l-3.6-2.1a.91.91,0,0,0-1,0l-3,1.7a1,1,0,0,0,0,1.8l3.6,2.1A1.18,1.18,0,0,0,243.1,337.63Z"/><path class="cls-4" d="M200.4,357.53l3.6,2.1a.91.91,0,0,0,1,0l3.9-2.2a1,1,0,0,0,0-1.7l-3.6-2.1a.91.91,0,0,0-1,0l-3.9,2.2A1,1,0,0,0,200.4,357.53Z"/><path class="cls-4" d="M223.5,344.13l3.6,2.1a.91.91,0,0,0,1,0l3.4-2a1,1,0,0,0,0-1.7l-3.6-2.1a.91.91,0,0,0-1,0l-3.4,2A1,1,0,0,0,223.5,344.13Z"/><path class="cls-4" d="M208.5,352.83l3.6,2.1a.91.91,0,0,0,1,0l3.5-2a1,1,0,0,0,0-1.7l-3.6-2.1a.91.91,0,0,0-1,0l-3.5,2A1,1,0,0,0,208.5,352.83Z"/><path class="cls-4" d="M216.2,348.43l3.6,2.1a.91.91,0,0,0,1,0l3.1-1.8a1,1,0,0,0,0-1.7l-3.6-2.1a.91.91,0,0,0-1,0l-3.1,1.8A1,1,0,0,0,216.2,348.43Z"/><path class="cls-4" d="M182.2,366.33l-4.3,2.5a1,1,0,0,0,0,1.8l3.6,2.1a.91.91,0,0,0,1,0l4.3-2.5a1,1,0,0,0,0-1.7l-3.6-2.1A.77.77,0,0,0,182.2,366.33Z"/><path class="cls-4" d="M235.8,341.83l3.1-1.8a1,1,0,0,0,0-1.7l-3.6-2.1a.91.91,0,0,0-1,0l-3.1,1.8a1,1,0,0,0,0,1.8l3.6,2.1A1.21,1.21,0,0,0,235.8,341.83Z"/><path class="cls-4" d="M225.2,353.53l3.6,2.1a.91.91,0,0,0,1,0l3.1-1.8a1,1,0,0,0,0-1.8l-3.6-2.1a.91.91,0,0,0-1,0l-3.1,1.8A1,1,0,0,0,225.2,353.53Z"/><path class="cls-4" d="M262.5,334.93l-3.6-2.1a.91.91,0,0,0-1,0l-3.3,1.9a1,1,0,0,0,0,1.8l3.6,2.1a.91.91,0,0,0,1,0l3.3-1.9A1,1,0,0,0,262.5,334.93Z"/><path class="cls-4" d="M217.4,358l3.6,2.1a.91.91,0,0,0,1,0l3.5-2a1,1,0,0,0,0-1.8l-3.6-2.1a.91.91,0,0,0-1,0l-3.5,2A1.13,1.13,0,0,0,217.4,358Z"/><path class="cls-4" d="M209.4,362.63l3.6,2.1a.91.91,0,0,0,1,0l3.8-2.2a1,1,0,0,0,0-1.8l-3.6-2.1a.91.91,0,0,0-1,0l-3.9,2.2A1.08,1.08,0,0,0,209.4,362.63Z"/><path class="cls-4" d="M240.1,344.93l3.6,2.1a.91.91,0,0,0,1,0l3.1-1.8a1,1,0,0,0,0-1.8l-3.6-2.1a.91.91,0,0,0-1,0l-3.1,1.8A1,1,0,0,0,240.1,344.93Z"/><path class="cls-4" d="M186.8,375.73l3.6,2.1a.91.91,0,0,0,1,0l4.3-2.5a1,1,0,0,0,0-1.8l-3.6-2.1a.91.91,0,0,0-1,0l-4.3,2.5A1,1,0,0,0,186.8,375.73Z"/><path class="cls-4" d="M232.5,349.33l3.6,2.1a.91.91,0,0,0,1,0l3.4-1.9a1,1,0,0,0,0-1.8l-3.6-2.1a.91.91,0,0,0-1,0l-3.4,1.9A1,1,0,0,0,232.5,349.33Z"/><path class="cls-4" d="M252,342.83l3-1.7a1,1,0,0,0,0-1.8l-3.6-2.1a.91.91,0,0,0-1,0l-3,1.7a1,1,0,0,0,0,1.8l3.6,2.1A1.7,1.7,0,0,0,252,342.83Z"/><path class="cls-4" d="M170.6,385l3.6,2.1a.91.91,0,0,0,1,0l3.8-2.2a1,1,0,0,0,0-1.8l-3.6-2.1a.91.91,0,0,0-1,0l-3.8,2.2A1,1,0,0,0,170.6,385Z"/><path class="cls-4" d="M182.6,376.33l-3.9,2.3a1,1,0,0,0,0,1.8l3.6,2.1a.91.91,0,0,0,1,0l3.9-2.3a1,1,0,0,0,0-1.8l-3.6-2.1A1.7,1.7,0,0,0,182.6,376.33Z"/><path class="cls-4" d="M259.3,342.43l-3,1.7a1,1,0,0,0,0,1.8l3.6,2.1a.91.91,0,0,0,1,0l2.9-1.7a1,1,0,0,0,0-1.8l-3.6-2.1A.75.75,0,0,0,259.3,342.43Z"/><path class="cls-4" d="M271.4,340.13l-3.6-2.1a.91.91,0,0,0-1,0l-3.3,1.9a1,1,0,0,0,0,1.8l3.6,2.1a.91.91,0,0,0,1,0l3.3-1.9A1,1,0,0,0,271.4,340.13Z"/><path class="cls-4" d="M249,350.13l3.6,2.1a.91.91,0,0,0,1,0l3.1-1.8a1,1,0,0,0,0-1.8l-3.6-2.1a.91.91,0,0,0-1,0l-3.1,1.8A1,1,0,0,0,249,350.13Z"/><path class="cls-4" d="M204.2,375.93l3.6,2.1a.91.91,0,0,0,1,0l40.5-23.4a1,1,0,0,0,0-1.7l-3.6-2.1a.91.91,0,0,0-1,0l-40.5,23.4A1,1,0,0,0,204.2,375.93Z"/><path class="cls-4" d="M179.6,390.23l3.6,2.1a.91.91,0,0,0,1,0l3.7-2.2a1,1,0,0,0,0-1.8l-3.6-2.1a.91.91,0,0,0-1,0l-3.8,2.2A1.08,1.08,0,0,0,179.6,390.23Z"/><path class="cls-4" d="M195.7,380.83l3.6,2.1a.91.91,0,0,0,1,0l4.3-2.5a1,1,0,0,0,0-1.8l-3.6-2.1a.91.91,0,0,0-1,0l-4.3,2.5A1,1,0,0,0,195.7,380.83Z"/><path class="cls-4" d="M187.6,385.53l3.6,2.1a.91.91,0,0,0,1,0l3.9-2.3a1,1,0,0,0,0-1.8l-3.6-2.1a.91.91,0,0,0-1,0l-3.9,2.3A1,1,0,0,0,187.6,385.53Z"/><path class="cls-4" d="M146.4,371.13l.8.5a.91.91,0,0,0,1,0l3.8-2.2a1,1,0,0,0,0-1.7l-.8-.5a.91.91,0,0,0-1,0l-3.8,2.2A1,1,0,0,0,146.4,371.13Z"/><path class="cls-4" d="M190.9,345.23l-.8-.5a.91.91,0,0,0-1,0l-3.9,2.2a1,1,0,0,0,0,1.7l.8.5a.91.91,0,0,0,1,0l3.9-2.2A1,1,0,0,0,190.9,345.23Z"/><path class="cls-4" d="M205.9,336.53l-.8-.5a.91.91,0,0,0-1,0l-3.1,1.8a1,1,0,0,0,0,1.7l.8.5a.91.91,0,0,0,1,0l3.1-1.8A1,1,0,0,0,205.9,336.53Z"/><path class="cls-4" d="M198.6,340.73l-.8-.5a.91.91,0,0,0-1,0l-3.5,2a1,1,0,0,0,0,1.7l.8.5a.91.91,0,0,0,1,0l3.5-2A1,1,0,0,0,198.6,340.73Z"/><path class="cls-4" d="M213.5,332.13l-.8-.5a.91.91,0,0,0-1,0l-3.4,2a1,1,0,0,0,0,1.7l.8.5a.91.91,0,0,0,1,0l3.4-2A1,1,0,0,0,213.5,332.13Z"/><path class="cls-4" d="M220.9,327.93l-.8-.5a.91.91,0,0,0-1,0l-3.2,1.8a1,1,0,0,0,0,1.7l.8.5a.91.91,0,0,0,1,0l3.2-1.8A1,1,0,0,0,220.9,327.93Z"/><path class="cls-4" d="M168.8,357.93l-.8-.5a.91.91,0,0,0-1,0l-4.4,2.5a1,1,0,0,0,0,1.7l.8.5a.91.91,0,0,0,1,0l4.4-2.5A1,1,0,0,0,168.8,357.93Z"/><path class="cls-4" d="M160.3,362.83l-.8-.5a.91.91,0,0,0-1,0l-4,2.3a1,1,0,0,0,0,1.7l.8.5a.91.91,0,0,0,1,0l4-2.3A1,1,0,0,0,160.3,362.83Z"/><path class="cls-4" d="M228,323.73l-.8-.5a.91.91,0,0,0-1,0l-3,1.7a1,1,0,0,0,0,1.7l.8.5a.91.91,0,0,0,1,0l3-1.7A1,1,0,0,0,228,323.73Z"/><path class="cls-4" d="M235.5,319.43l-.8-.4a.91.91,0,0,0-1,0l-3.3,1.9a1,1,0,0,0,0,1.7l.8.5a.91.91,0,0,0,1,0l3.3-1.9A1,1,0,0,0,235.5,319.43Z"/><path class="cls-4" d="M180,353.23l2.8-1.6a1,1,0,0,0,0-1.7l-.8-.5a.91.91,0,0,0-1,0l-2.8,1.6a1,1,0,0,0,0,1.7l.8.5A.91.91,0,0,0,180,353.23Z"/><path class="cls-4" d="M174,353.43l-2.8,1.6a1,1,0,0,0,0,1.7l.8.5a.91.91,0,0,0,1,0l2.8-1.6a1,1,0,0,0,0-1.7l-.8-.5A.91.91,0,0,0,174,353.43Z"/><path class="cls-4" d="M191.9,356.83a1,1,0,0,0,0-1.7l-3.6-2.1a.91.91,0,0,0-1,0l-2.8,1.6a1,1,0,0,0,0,1.8l3.6,2.1"/><path class="cls-4" d="M180.3,357l-2.8,1.6a1,1,0,0,0,0,1.8l3.6,2.1a.91.91,0,0,0,1,0l2.8-1.6a1,1,0,0,0,0-1.8l-3.6-2.1A1.7,1.7,0,0,0,180.3,357Z"/><path class="cls-4" d="M198,363.63l2.8-1.6a1,1,0,0,0,0-1.7l-3.6-2.1a.91.91,0,0,0-1,0l-2.8,1.6a1,1,0,0,0,0,1.8l3.6,2.1A1.18,1.18,0,0,0,198,363.63Z"/><path class="cls-4" d="M189.2,362.23l-2.8,1.6a1,1,0,0,0,0,1.8l3.6,2.1a.91.91,0,0,0,1,0l2.8-1.6a1,1,0,0,0,0-1.8l-3.6-2.1A.91.91,0,0,0,189.2,362.23Z"/><path class="cls-4" d="M207,368.83l2.8-1.6a1,1,0,0,0,0-1.8l-3.6-2.1a.91.91,0,0,0-1,0l-2.8,1.6a1,1,0,0,0,0,1.8l3.6,2.1A.91.91,0,0,0,207,368.83Z"/><path class="cls-4" d="M198.1,367.43l-2.8,1.6a1,1,0,0,0,0,1.8l3.6,2.1a.91.91,0,0,0,1,0l2.8-1.6a1,1,0,0,0,0-1.8l-3.6-2.1A.91.91,0,0,0,198.1,367.43Z"/></g><polygon id="Vase_shadow" data-name="Vase shadow" class="cls-5" points="61.4 347.23 96.3 367.13 145.6 338.73 110.7 318.83 61.4 347.23"/><path class="cls-6" d="M109.5,279.13v39.6a11.08,11.08,0,0,0,5.5,9.6l19.7,11.5a9,9,0,0,0,9,0l48.7-28.1a4.42,4.42,0,0,0,0-7.7l-17.6-10.1a11.13,11.13,0,0,1-5.6-9.7l.2-39.4Z"/><path class="cls-7" d="M109.5,275.93v39.6a11.08,11.08,0,0,0,5.5,9.6l19.7,11.5a9,9,0,0,0,9,0l48.7-28.1a4.42,4.42,0,0,0,0-7.7l-17.6-10.1a11.13,11.13,0,0,1-5.6-9.7l.2-39.4Z"/><polygon class="cls-8" points="169.4 264.53 169.5 241.63 109.5 275.93 109.5 299.03 169.4 264.53"/><path class="cls-9" d="M109.5,275.93v39.6a11.08,11.08,0,0,0,5.5,9.6l19.7,11.5a9,9,0,0,0,9,0l48.7-28.1a4.42,4.42,0,0,0,0-7.7l-17.6-10.1a11.13,11.13,0,0,1-5.6-9.7l.2-39.4Z"/><path class="cls-2" d="M246.1,9.23v181.6a18.31,18.31,0,0,1-9.2,15.9L13.8,335.53a9.23,9.23,0,0,1-13.8-8V145.63a18.31,18.31,0,0,1,9.2-15.9L232.4,1.23A9.15,9.15,0,0,1,246.1,9.23Z"/><polygon class="cls-2" points="241 0.93 251.2 6.13 13.6 340.03 4.1 335.23 5.2 139.13 241 0.93"/><path class="cls-10" d="M255.3,13.83v181.6a18.31,18.31,0,0,1-9.2,15.9L22.9,340.13a9.23,9.23,0,0,1-13.8-8V150.23a18.31,18.31,0,0,1,9.2-15.9L241.5,5.83A9.23,9.23,0,0,1,255.3,13.83Z"/><path class="cls-3" d="M9.1,320.73v11.5a9.23,9.23,0,0,0,13.8,8l223.2-128.8a18.31,18.31,0,0,0,9.2-15.9v-16.8Z"/><path class="cls-2" d="M143.5,255.63c1.9-1.1,3.5-.2,3.5,2a7.74,7.74,0,0,1-3.5,6c-1.9,1.1-3.5.2-3.5-2A7.74,7.74,0,0,1,143.5,255.63Z"/><path class="cls-10" d="M246.3,15l.6,158.4a1.7,1.7,0,0,1-.9,1.6L19.8,305.63a.93.93,0,0,1-1.4-.8l-.6-158.4a1.7,1.7,0,0,1,.9-1.6L245,14.33A.81.81,0,0,1,246.3,15Z"/><path class="cls-11" d="M130.9,129.93c0-8.4-6-11.9-13.3-7.7s-13.3,14.6-13.3,23,6,11.9,13.3,7.7S130.9,138.43,130.9,129.93Z"/><path class="cls-4" d="M137.8,117.73a5.73,5.73,0,0,0-2.6,4.5v1.9a1.6,1.6,0,0,0,2.6,1.5l28.3-16.3a5.73,5.73,0,0,0,2.6-4.5v-1.9c0-1.7-1.2-2.3-2.6-1.5Z"/><path class="cls-4" d="M106.9,170.83a5.89,5.89,0,0,0-2.6,4.5v1.9a1.6,1.6,0,0,0,2.6,1.5l59.4-34.4a5.89,5.89,0,0,0,2.6-4.5v-1.9a1.6,1.6,0,0,0-2.6-1.5Z"/><path class="cls-4" d="M106.9,185.73a5.89,5.89,0,0,0-2.6,4.5v1.9c0,1.7,1.2,2.3,2.6,1.5l59.4-34.4a5.89,5.89,0,0,0,2.6-4.5v-1.9a1.6,1.6,0,0,0-2.6-1.5Z"/><path class="cls-4" d="M137.8,132.63a5.73,5.73,0,0,0-2.6,4.5V139a1.6,1.6,0,0,0,2.6,1.5l28.3-16.3a5.73,5.73,0,0,0,2.6-4.5v-1.9a1.6,1.6,0,0,0-2.6-1.5Z"/><path class="cls-4" d="M106.9,200.63a5.89,5.89,0,0,0-2.6,4.5V207c0,1.7,1.2,2.3,2.6,1.5l59.4-34.4a5.89,5.89,0,0,0,2.6-4.5v-1.9a1.6,1.6,0,0,0-2.6-1.5Z"/><path class="cls-4" d="M106.9,215.53a5.89,5.89,0,0,0-2.6,4.5v1.9a1.6,1.6,0,0,0,2.6,1.5L166.3,189a5.89,5.89,0,0,0,2.6-4.5v-1.9a1.6,1.6,0,0,0-2.6-1.5Z"/><path class="cls-3" d="M298.8,325.93l4.1-2.4a3.05,3.05,0,0,0,0-5.3h0a6.32,6.32,0,0,0-6.5,0l-4.9,2.8a2.87,2.87,0,0,0,.1,5h0A7.38,7.38,0,0,0,298.8,325.93Z"/></g></g></svg>