<svg xmlns="http://www.w3.org/2000/svg" xmlns:xlink="http://www.w3.org/1999/xlink" viewBox="0 0 441.6 438.69"><defs><style>.cls-1{fill:#e6e6e6;}.cls-2{fill:url(#Unbenannter_Verlauf_5);}.cls-3{fill:url(#Unbenannter_Verlauf_5-2);}.cls-4{fill:#ccc;}.cls-5{fill:#ededed;}.cls-6{fill:#fff;}.cls-7{fill:#b3b3b3;}.cls-10,.cls-8{fill:#011627;}.cls-8{opacity:0.07;isolation:isolate;}.cls-9{fill:gray;}.cls-11{fill:none;stroke:#fff;stroke-miterlimit:10;stroke-width:3px;}.cls-12{fill:#a50e35;}.cls-13{fill:#dd1843;}</style><linearGradient id="Unbenannter_Verlauf_5" x1="-2231.37" y1="24.93" x2="-2261.17" y2="83.41" gradientTransform="translate(-2092.15 434.17) rotate(180)" gradientUnits="userSpaceOnUse"><stop offset="0" stop-color="#fff" stop-opacity="0"/><stop offset="1" stop-opacity="0.3"/></linearGradient><linearGradient id="Unbenannter_Verlauf_5-2" x1="-2131.23" y1="86.6" x2="-2157.72" y2="138.59" xlink:href="#Unbenannter_Verlauf_5"/></defs><title>howto-home2</title><g id="Ebene_2" data-name="Ebene 2"><g id="Layer_1" data-name="Layer 1"><path class="cls-1" d="M250.2,21.79,226.5,35a5.53,5.53,0,0,1-8.3-4.8V19.79c0-4.2-2.8-6.1-6.2-4.1s-6.2,7-6.2,11.3v9.2a18.89,18.89,0,0,1-9.3,16.2h0a12.06,12.06,0,0,1-18.1-10.5V7c0-6.1-4-8.7-8.9-5.8s-8.9,10.1-8.9,16.2v44.7a19.32,19.32,0,0,1-9.6,16.7h0a7.59,7.59,0,0,1-11.4-6.6V51.59c0-4-2.7-5.8-5.9-3.9s-5.9,6.7-5.9,10.7v22A20.25,20.25,0,0,1,117.6,98l-7,4.1a6.21,6.21,0,0,1-9.3-5.4h0c0-6.1-4-8.7-8.9-5.8s-8.9,10.1-8.9,16.2v1.3a16.26,16.26,0,0,1-8.2,14.2l-3.8,2.2a20,20,0,0,0-10,17.3v139.5a6,6,0,0,0,9,5.2l189-109.7c3.7-2.1,6-5.1,6-9.4V30.39A10.23,10.23,0,0,0,250.2,21.79Z"/><path class="cls-1" d="M133.5,41.29a13.56,13.56,0,0,0,5.9-10.6v-6.5c0-4-2.6-5.7-5.9-3.8A13.56,13.56,0,0,0,127.6,31v6.5C127.6,41.39,130.3,43.19,133.5,41.29Z"/><polygon id="Vase_shadow" data-name="Vase shadow" class="cls-2" points="51 355.09 197 438.69 257.1 405.19 109.2 320.39 51 355.09"/><polygon id="Vase_shadow-2" data-name="Vase shadow" class="cls-3" points="49.5 352.89 0 320.39 53.6 289.49 105.8 320.49 49.5 352.89"/><path class="cls-4" d="M319.6,212l114.5,65.8a15,15,0,0,1,0,26L257.3,405.89a29.8,29.8,0,0,1-30,0l-119-68.4a6,6,0,0,1,0-10.4L307.6,212A12.22,12.22,0,0,1,319.6,212Z"/><path class="cls-5" d="M319.6,206l114.5,65.8a15,15,0,0,1,0,26L257.3,399.89a29.8,29.8,0,0,1-30,0l-119-68.4a6,6,0,0,1,0-10.4L307.6,206A12.22,12.22,0,0,1,319.6,206Z"/><path class="cls-6" d="M311.5,245.19l6.2-3.6a2.15,2.15,0,0,0,0-3.7l-7.5-4.4a2,2,0,0,0-2.1,0l-6.2,3.6a2.15,2.15,0,0,0,0,3.7l7.6,4.4A1.81,1.81,0,0,0,311.5,245.19Z"/><path class="cls-6" d="M193.6,309.59l-7.6-4.4a2,2,0,0,0-2.1,0l-9.1,5.3a2.15,2.15,0,0,0,0,3.7l7.6,4.4a2,2,0,0,0,2.1,0l9.1-5.3A2.15,2.15,0,0,0,193.6,309.59Z"/><path class="cls-6" d="M166,315.49l-8.3,4.8a2.15,2.15,0,0,0,0,3.7l7.6,4.4a2,2,0,0,0,2.1,0l8.3-4.8a2.15,2.15,0,0,0,0-3.7l-7.6-4.4A2,2,0,0,0,166,315.49Z"/><path class="cls-6" d="M141,333.69l7.6,4.4a2,2,0,0,0,2.1,0l7.9-4.6a2.15,2.15,0,0,0,0-3.7l-7.6-4.4a2,2,0,0,0-2.1,0L141,330A2.08,2.08,0,0,0,141,333.69Z"/><path class="cls-6" d="M256.1,273.49l-7.6-4.4a2,2,0,0,0-2.1,0l-7.4,4.3a2.15,2.15,0,0,0,0,3.7l7.6,4.4a2,2,0,0,0,2.1,0l7.4-4.3A2.15,2.15,0,0,0,256.1,273.49Z"/><path class="cls-6" d="M302.7,246.59l-7.5-4.4a2,2,0,0,0-2.1,0l-6.7,3.9a2.15,2.15,0,0,0,0,3.7l7.6,4.4a2,2,0,0,0,2.1,0l6.6-3.8A2.24,2.24,0,0,0,302.7,246.59Z"/><path class="cls-6" d="M333.5,228.79l-7.6-4.3a2,2,0,0,0-2.1,0l-6.9,4a2.15,2.15,0,0,0,0,3.7l7.5,4.4a2,2,0,0,0,2.1,0l7-4A2.24,2.24,0,0,0,333.5,228.79Z"/><path class="cls-6" d="M287.3,255.49l-7.6-4.4a2,2,0,0,0-2.1,0l-7.1,4.1a2.15,2.15,0,0,0,0,3.7l7.6,4.4a2,2,0,0,0,2.1,0l7.1-4.1A2.15,2.15,0,0,0,287.3,255.49Z"/><path class="cls-6" d="M271.4,264.69l-7.6-4.4a2,2,0,0,0-2.1,0l-6.5,3.8a2.15,2.15,0,0,0,0,3.7l7.6,4.4a2,2,0,0,0,2.1,0l6.5-3.8A2.15,2.15,0,0,0,271.4,264.69Z"/><path class="cls-6" d="M239.9,282.89l-7.6-4.4a2,2,0,0,0-2.1,0l-8.1,4.7a2.15,2.15,0,0,0,0,3.7l7.6,4.4a2,2,0,0,0,2.1,0l8.1-4.7A2.15,2.15,0,0,0,239.9,282.89Z"/><path class="cls-6" d="M184.7,326.29l-8.3,4.8a2.15,2.15,0,0,0,0,3.7l7.6,4.4a2,2,0,0,0,2.1,0l8.3-4.8a2.15,2.15,0,0,0,0-3.7l-7.6-4.4A2.56,2.56,0,0,0,184.7,326.29Z"/><path class="cls-6" d="M159.7,344.49l7.6,4.4a2,2,0,0,0,2.1,0l7.9-4.6a2.15,2.15,0,0,0,0-3.7l-7.6-4.4a2,2,0,0,0-2.1,0l-7.9,4.6A2.08,2.08,0,0,0,159.7,344.49Z"/><path class="cls-6" d="M352.2,239.59l-7.6-4.3a2,2,0,0,0-2.1,0l-6.9,4a2.15,2.15,0,0,0,0,3.7l7.5,4.4a2,2,0,0,0,2.1,0l7-4A2.24,2.24,0,0,0,352.2,239.59Z"/><path class="cls-6" d="M330.2,256l6.2-3.6a2.15,2.15,0,0,0,0-3.7l-7.5-4.4a2,2,0,0,0-2.1,0l-6.2,3.6a2.15,2.15,0,0,0,0,3.7l7.6,4.4A1.81,1.81,0,0,0,330.2,256Z"/><path class="cls-6" d="M240.8,297.59l7.6,4.4a2,2,0,0,0,2.1,0l8.1-4.7a2.15,2.15,0,0,0,0-3.7l-7.6-4.4a2,2,0,0,0-2.1,0l-8.1,4.7A2.15,2.15,0,0,0,240.8,297.59Z"/><path class="cls-6" d="M289.2,269.69l7.6,4.4a2,2,0,0,0,2.1,0L306,270a2.15,2.15,0,0,0,0-3.7l-7.6-4.4a2,2,0,0,0-2.1,0l-7.1,4.1A2.15,2.15,0,0,0,289.2,269.69Z"/><path class="cls-6" d="M257.7,287.89l7.6,4.4a2,2,0,0,0,2.1,0l7.3-4.2a2.15,2.15,0,0,0,0-3.7l-7.6-4.4a2,2,0,0,0-2.1,0l-7.4,4.2A2.2,2.2,0,0,0,257.7,287.89Z"/><path class="cls-6" d="M273.9,278.49l7.6,4.4a2,2,0,0,0,2.1,0l6.5-3.8a2.15,2.15,0,0,0,0-3.7l-7.6-4.4a2,2,0,0,0-2.1,0l-6.5,3.8A2.15,2.15,0,0,0,273.9,278.49Z"/><path class="cls-6" d="M202.6,316l-9.1,5.2a2.15,2.15,0,0,0,0,3.7l7.6,4.4a2,2,0,0,0,2.1,0l9.1-5.2a2.15,2.15,0,0,0,0-3.7l-7.6-4.4A2,2,0,0,0,202.6,316Z"/><path class="cls-6" d="M314.8,264.89l6.6-3.8a2.15,2.15,0,0,0,0-3.7l-7.5-4.4a2,2,0,0,0-2.1,0l-6.6,3.8a2.15,2.15,0,0,0,0,3.7l7.6,4.4A1.81,1.81,0,0,0,314.8,264.89Z"/><path class="cls-6" d="M292.6,289.29l7.6,4.4a2,2,0,0,0,2.1,0l6.5-3.7a2.15,2.15,0,0,0,0-3.7l-7.6-4.4a2,2,0,0,0-2.1,0l-6.5,3.7A2.15,2.15,0,0,0,292.6,289.29Z"/><path class="cls-6" d="M370.9,250.39l-7.6-4.3a2,2,0,0,0-2.1,0l-6.9,4a2.15,2.15,0,0,0,0,3.7l7.5,4.4a2,2,0,0,0,2.1,0l7-4A2.24,2.24,0,0,0,370.9,250.39Z"/><path class="cls-6" d="M276.4,298.69l7.6,4.4a2,2,0,0,0,2.1,0l7.3-4.2a2.15,2.15,0,0,0,0-3.7l-7.6-4.4a2,2,0,0,0-2.1,0l-7.3,4.2A2.15,2.15,0,0,0,276.4,298.69Z"/><path class="cls-6" d="M259.5,308.39l7.6,4.4a2,2,0,0,0,2.1,0l8.1-4.7a2.15,2.15,0,0,0,0-3.7l-7.6-4.4a2,2,0,0,0-2.1,0l-8.1,4.7A2.15,2.15,0,0,0,259.5,308.39Z"/><path class="cls-6" d="M323.8,271.29l7.6,4.4a2,2,0,0,0,2.1,0l6.5-3.8a2.15,2.15,0,0,0,0-3.7l-7.5-4.4a2,2,0,0,0-2.1,0l-6.6,3.8A2.15,2.15,0,0,0,323.8,271.29Z"/><path class="cls-6" d="M212.2,335.69l7.6,4.4a2,2,0,0,0,2.1,0l9-5.2a2.15,2.15,0,0,0,0-3.7l-7.6-4.4a2,2,0,0,0-2.1,0l-9,5.2A2.15,2.15,0,0,0,212.2,335.69Z"/><path class="cls-6" d="M307.9,280.49l7.6,4.4a2,2,0,0,0,2.1,0l7.1-4.1a2.15,2.15,0,0,0,0-3.7l-7.5-4.4a2,2,0,0,0-2.1,0l-7.1,4.1A2.12,2.12,0,0,0,307.9,280.49Z"/><path class="cls-6" d="M348.9,266.79l6.2-3.6a2.15,2.15,0,0,0,0-3.7l-7.5-4.4a2,2,0,0,0-2.1,0l-6.2,3.6a2.15,2.15,0,0,0,0,3.7l7.5,4.4A2,2,0,0,0,348.9,266.79Z"/><path class="cls-6" d="M178.4,355.29l7.6,4.4a2,2,0,0,0,2.1,0l7.9-4.5a2.15,2.15,0,0,0,0-3.7l-7.6-4.4a2,2,0,0,0-2.1,0l-7.9,4.6A2,2,0,0,0,178.4,355.29Z"/><path class="cls-6" d="M203.4,337.09l-8.3,4.8a2.15,2.15,0,0,0,0,3.7l7.6,4.4a2,2,0,0,0,2.1,0l8.3-4.8a2.15,2.15,0,0,0,0-3.7l-7.6-4.4A2.56,2.56,0,0,0,203.4,337.09Z"/><path class="cls-6" d="M364.1,266l-6.2,3.6a2.15,2.15,0,0,0,0,3.7l7.5,4.4a2,2,0,0,0,2.1,0l6.2-3.6a2.15,2.15,0,0,0,0-3.7l-7.5-4.4A2,2,0,0,0,364.1,266Z"/><path class="cls-6" d="M389.6,261.19l-7.6-4.3a2,2,0,0,0-2.1,0l-6.9,4a2.15,2.15,0,0,0,0,3.7l7.5,4.4a2,2,0,0,0,2.1,0l7-4A2.24,2.24,0,0,0,389.6,261.19Z"/><path class="cls-6" d="M342.5,282.09l7.6,4.4a2,2,0,0,0,2.1,0l6.5-3.8a2.15,2.15,0,0,0,0-3.7l-7.5-4.4a2,2,0,0,0-2.1,0l-6.5,3.8A2.12,2.12,0,0,0,342.5,282.09Z"/><path class="cls-6" d="M248.8,336.19l7.6,4.4a2,2,0,0,0,2.1,0l84.9-49a2.07,2.07,0,0,0,0-3.6l-7.6-4.4a2,2,0,0,0-2.1,0l-84.9,49A2.07,2.07,0,0,0,248.8,336.19Z"/><path class="cls-6" d="M197.1,366.09l7.6,4.4a2,2,0,0,0,2.1,0l7.8-4.5a2.15,2.15,0,0,0,0-3.7l-7.6-4.4a2,2,0,0,0-2.1,0l-7.9,4.6A2,2,0,0,0,197.1,366.09Z"/><path class="cls-6" d="M230.9,346.49l7.6,4.4a2,2,0,0,0,2.1,0l9-5.2a2.15,2.15,0,0,0,0-3.7l-7.6-4.4a2,2,0,0,0-2.1,0l-9,5.2A2.15,2.15,0,0,0,230.9,346.49Z"/><path class="cls-6" d="M213.8,356.39l7.6,4.4a2,2,0,0,0,2.1,0l8.2-4.8a2.15,2.15,0,0,0,0-3.7l-7.6-4.4a2,2,0,0,0-2.1,0l-8.3,4.8A2.2,2.2,0,0,0,213.8,356.39Z"/><path class="cls-6" d="M127.7,326.09l1.7,1a2,2,0,0,0,2.1,0l8-4.6a2.15,2.15,0,0,0,0-3.7l-1.7-1a2,2,0,0,0-2.1,0l-8.1,4.6A2.2,2.2,0,0,0,127.7,326.09Z"/><path class="cls-6" d="M220.8,271.79l-1.7-1a2,2,0,0,0-2.1,0l-8.2,4.7a2.15,2.15,0,0,0,0,3.7l1.7,1a2,2,0,0,0,2.1,0l8.2-4.7A2.15,2.15,0,0,0,220.8,271.79Z"/><path class="cls-6" d="M252.3,253.59l-1.7-1a2,2,0,0,0-2.1,0l-6.6,3.8a2.15,2.15,0,0,0,0,3.7l1.7,1a2,2,0,0,0,2.1,0l6.6-3.8A2.15,2.15,0,0,0,252.3,253.59Z"/><path class="cls-6" d="M237,262.49l-1.7-1a2,2,0,0,0-2.1,0l-7.4,4.3a2.15,2.15,0,0,0,0,3.7l1.7,1a2,2,0,0,0,2.1,0l7.4-4.3A2.15,2.15,0,0,0,237,262.49Z"/><path class="cls-6" d="M268.2,244.39l-1.7-1a2,2,0,0,0-2.1,0l-7.2,4.1a2.15,2.15,0,0,0,0,3.7l1.7,1a2,2,0,0,0,2.1,0l7.2-4.1A2.15,2.15,0,0,0,268.2,244.39Z"/><path class="cls-6" d="M283.6,235.59l-1.6-1a2,2,0,0,0-2.1,0l-6.6,3.8a2.15,2.15,0,0,0,0,3.7l1.7,1a2,2,0,0,0,2.1,0l6.6-3.8A2.2,2.2,0,0,0,283.6,235.59Z"/><path class="cls-6" d="M174.5,298.49l-1.7-1a2,2,0,0,0-2.1,0l-9.1,5.3a2.15,2.15,0,0,0,0,3.7l1.7,1a2,2,0,0,0,2.1,0l9.1-5.3A2.15,2.15,0,0,0,174.5,298.49Z"/><path class="cls-6" d="M156.6,308.89l-1.7-1a2,2,0,0,0-2.1,0l-8.4,4.8a2.15,2.15,0,0,0,0,3.7l1.7,1a2,2,0,0,0,2.1,0l8.4-4.8A2.15,2.15,0,0,0,156.6,308.89Z"/><path class="cls-6" d="M298.6,226.89,297,226a2,2,0,0,0-2.1,0l-6.3,3.6a2.15,2.15,0,0,0,0,3.7l1.6.9a2,2,0,0,0,2.1,0l6.3-3.6A2.15,2.15,0,0,0,298.6,226.89Z"/><path class="cls-6" d="M314.2,217.79l-1.7-.9a2,2,0,0,0-2.1,0l-6.9,4a2.15,2.15,0,0,0,0,3.7l1.6.9a2,2,0,0,0,2.1,0l6.9-4A2.05,2.05,0,0,0,314.2,217.79Z"/><path class="cls-6" d="M198,288.69l5.9-3.4a2.15,2.15,0,0,0,0-3.7l-1.7-1a2,2,0,0,0-2.1,0l-6,3.4a2.15,2.15,0,0,0,0,3.7l1.7,1A2.8,2.8,0,0,0,198,288.69Z"/><path class="cls-6" d="M185.4,289.09l-5.9,3.4a2.15,2.15,0,0,0,0,3.7l1.7,1a2,2,0,0,0,2.1,0l5.9-3.4a2.15,2.15,0,0,0,0-3.7l-1.7-1A2,2,0,0,0,185.4,289.09Z"/><path class="cls-6" d="M217.1,299.69l5.9-3.4a2.15,2.15,0,0,0,0-3.7l-7.6-4.4a2,2,0,0,0-2.1,0l-5.9,3.4a2.15,2.15,0,0,0,0,3.7l7.6,4.4A2,2,0,0,0,217.1,299.69Z"/><path class="cls-6" d="M198.6,296.69l-5.9,3.4a2.15,2.15,0,0,0,0,3.7l7.6,4.4a2,2,0,0,0,2.1,0l5.9-3.4a2.15,2.15,0,0,0,0-3.7l-7.6-4.4A2,2,0,0,0,198.6,296.69Z"/><path class="cls-6" d="M235.8,310.49l5.9-3.4a2.15,2.15,0,0,0,0-3.7l-7.6-4.4a2,2,0,0,0-2.1,0l-5.9,3.4a2.15,2.15,0,0,0,0,3.7l7.6,4.4A2,2,0,0,0,235.8,310.49Z"/><path class="cls-6" d="M217.3,307.49l-5.9,3.4a2.15,2.15,0,0,0,0,3.7L219,319a2,2,0,0,0,2.1,0l5.9-3.4a2.15,2.15,0,0,0,0-3.7l-7.6-4.4A2,2,0,0,0,217.3,307.49Z"/><path class="cls-6" d="M254.5,321.29l5.9-3.4a2.15,2.15,0,0,0,0-3.7l-7.6-4.4a2,2,0,0,0-2.1,0l-5.9,3.4a2.15,2.15,0,0,0,0,3.7l7.6,4.4A2,2,0,0,0,254.5,321.29Z"/><path class="cls-6" d="M236,318.29l-5.9,3.4a2.15,2.15,0,0,0,0,3.7l7.6,4.4a2,2,0,0,0,2.1,0l5.9-3.4a2.15,2.15,0,0,0,0-3.7l-7.6-4.4A2.56,2.56,0,0,0,236,318.29Z"/><path class="cls-7" d="M346.6,304.39a15.46,15.46,0,0,0-13.9,0l-57.4,33.1c-3.8,2.2-3.8,5.8,0,8l26.6,15.4a15.25,15.25,0,0,0,13.8,0l57.4-33.3c3.8-2.2,3.8-5.8,0-8Z"/><path class="cls-4" d="M346.8,305.59a15.46,15.46,0,0,0-13.9,0l-56.3,32.7c-5.3,2.8-3.8,5.8,0,8l25.2,14.6a15.25,15.25,0,0,0,13.8,0L371.9,328c5.9-3.4,3.8-5.8,0-8Z"/><path class="cls-4" d="M304.3,45.59l-43-23.9h0a7.8,7.8,0,0,0-8.2-.1l-193,110.2a16.64,16.64,0,0,0-6.3,6.6h0a16.22,16.22,0,0,0-1.7,7.2v141.9a7.88,7.88,0,0,0,4.2,7h0L98.6,319l34.6-63.5L267,178.19a15.92,15.92,0,0,0,8-13.9v-62.9Z"/><path class="cls-8" d="M72.3,191.79l-1.7-.9a2.05,2.05,0,0,0-3,1.8v13.5a67.47,67.47,0,0,1-15.5,43v11.5a75.31,75.31,0,0,0,23.3-54.4v-9.4A5.71,5.71,0,0,0,72.3,191.79Z"/><path class="cls-9" d="M299,55.69A11.77,11.77,0,0,0,294.3,40l-33-8.3h0a7.8,7.8,0,0,0-8.2-.1l-193,100.2a16.64,16.64,0,0,0-6.3,6.6h0a16.77,16.77,0,0,0-1.7,5.9l59.8,34.5-4.7,124.3,26-47.6L267,178.19a15.92,15.92,0,0,0,8-13.9v-62.9Z"/><path class="cls-5" d="M296.3,45.59l-193,111.2a15.92,15.92,0,0,0-8,13.9v141.9a8,8,0,0,0,12,6.9l193-111.2a15.92,15.92,0,0,0,8-13.9V52.49A8,8,0,0,0,296.3,45.59Z"/><path class="cls-10" d="M288,57.59,111.9,159a14.57,14.57,0,0,0-7.3,12.6v129.5a7.33,7.33,0,0,0,11,6.3l176.1-101.5a14.57,14.57,0,0,0,7.3-12.6V63.79A7.32,7.32,0,0,0,288,57.59Z"/><path class="cls-1" d="M300.4,43.49,261.9,22a10.05,10.05,0,0,0-9.8,0L55.8,133.49a3,3,0,0,0,0,5.2l40.1,22.9a35.91,35.91,0,0,1,17.9,30.9v23.9a10,10,0,0,0,15,8.7l179.5-103.6a20,20,0,0,0,10-17.3V74.49A35.5,35.5,0,0,0,300.4,43.49Z"/><path class="cls-11" d="M60.9,179.69c0-2.8,1.9-3.9,4.3-2.5l15.8,9.1a9.49,9.49,0,0,1,4.3,7.5v5.3c0,2.8-1.9,3.9-4.3,2.5l-15.8-9.1a9.49,9.49,0,0,1-4.3-7.5Z"/><path class="cls-7" d="M64.2,170.89c0-2.8,1.9-3.9,4.3-2.5l9.2,5.3a9.64,9.64,0,0,1,4.3,7.5v4a16.21,16.21,0,0,0,0,4.4v2.3c0,2.8-1.9,3.9-4.3,2.5l-9.2-5.3a9.49,9.49,0,0,1-4.3-7.5v-3a16.1,16.1,0,0,1,0-3.8h0Z"/><path class="cls-7" d="M52,284.69l-9.8-5.1a18.06,18.06,0,0,1-9.1-15.8,19,19,0,0,1,9.6-16.2,52.05,52.05,0,0,0,25.6-44.7v-10.4a1.57,1.57,0,0,1,2.3-1.4l1.3.7a4.22,4.22,0,0,1,2.4,3.9V203a58.24,58.24,0,0,1-29,50.2,12.3,12.3,0,0,0,.1,21.4h0l6.9,3.2Z"/><path class="cls-10" d="M222.6,75.79c1.9-1.1,1.9-2.9,0-4h-.1a7.63,7.63,0,0,0-6.9,0L151.1,109c-1.9,1.1-1.9,2.9,0,4h.1a7.63,7.63,0,0,0,6.9,0Z"/><path class="cls-12" d="M235.1,153.49v26.8a10,10,0,0,1-5,8.7l-23.2,13.4a5,5,0,0,1-7.5-4.3v-26.8a10,10,0,0,1,5-8.7l23.2-13.4A5,5,0,0,1,235.1,153.49Z"/><path class="cls-4" d="M158.6,112.79a6.3,6.3,0,0,1-3.6,1.1,8.36,8.36,0,0,1-3.4-.6V97.49a23.56,23.56,0,0,1,11.8-20.4l39-22.4a13.56,13.56,0,0,1,13.5,0,13.31,13.31,0,0,1,6.7,11.7v9.5l-7,4V66.39a6.38,6.38,0,0,0-3.2-5.6,6.32,6.32,0,0,0-6.5,0l-39,22.4a16.51,16.51,0,0,0-8.3,14.3Z"/><path class="cls-13" d="M237.1,155.49v26.8a10,10,0,0,1-5,8.7l-23.2,13.4a5,5,0,0,1-7.5-4.3v-26.8a10,10,0,0,1,5-8.7l23.2-13.4A5,5,0,0,1,237.1,155.49Z"/><path class="cls-10" d="M228.6,183.39v12.5a4.87,4.87,0,0,1-2.3,4.1l-10.9,6.3a2.31,2.31,0,0,1-3.5-2v-12.5a4.87,4.87,0,0,1,2.3-4.1l10.9-6.3A2.28,2.28,0,0,1,228.6,183.39Z"/><path class="cls-6" d="M229.6,184.39v12.5a4.87,4.87,0,0,1-2.3,4.1l-10.9,6.3a2.31,2.31,0,0,1-3.5-2v-12.5a4.87,4.87,0,0,1,2.3-4.1l10.9-6.3A2.28,2.28,0,0,1,229.6,184.39Z"/></g></g></svg>