<svg xmlns="http://www.w3.org/2000/svg" xmlns:xlink="http://www.w3.org/1999/xlink" viewBox="0 0 425.05 386.07"><defs><style>.cls-1{fill:url(#Unbenannter_Verlauf_10);}.cls-2{fill:#ccc;}.cls-3{fill:#ededed;}.cls-12,.cls-15,.cls-4{fill:#011627;}.cls-5,.cls-6{fill:none;stroke:#dd1843;}.cls-13,.cls-5,.cls-6{stroke-miterlimit:10;}.cls-6{opacity:0.5;}.cls-12,.cls-14,.cls-15,.cls-6,.cls-8{isolation:isolate;}.cls-7{fill:#e6e6e6;}.cls-14,.cls-8{opacity:0.3;}.cls-8{fill:url(#Unbenannter_Verlauf_11);}.cls-9{fill:#dd1843;}.cls-10,.cls-13{fill:#f2f2f2;}.cls-11{fill:#fff;}.cls-12{opacity:0.07;}.cls-13{stroke:#ccc;stroke-width:0.5px;}.cls-14{fill:url(#Unbenannter_Verlauf_12);}.cls-15{opacity:0.05;}</style><linearGradient id="Unbenannter_Verlauf_10" x1="-4482.95" y1="23.03" x2="-4513.3" y2="82.6" gradientTransform="translate(-4389.95 376.95) rotate(180)" gradientUnits="userSpaceOnUse"><stop offset="0" stop-color="#fff" stop-opacity="0"/><stop offset="0.91" stop-opacity="0.3"/></linearGradient><linearGradient id="Unbenannter_Verlauf_11" x1="217.19" y1="82.98" x2="240.83" y2="171.19" gradientTransform="matrix(1, 0, 0, -1, 0, 376.95)" gradientUnits="userSpaceOnUse"><stop offset="0.24" stop-color="#fff" stop-opacity="0"/><stop offset="1" stop-color="#e6e6e6"/></linearGradient><linearGradient id="Unbenannter_Verlauf_12" x1="145.69" y1="41.58" x2="169.33" y2="129.79" gradientTransform="matrix(1, 0, 0, -1, 0, 376.95)" gradientUnits="userSpaceOnUse"><stop offset="0.38" stop-color="#fff" stop-opacity="0"/><stop offset="1" stop-color="#e6e6e6"/></linearGradient></defs><title>howto-home4</title><g id="Ebene_2" data-name="Ebene 2"><g id="Layer_1" data-name="Layer 1"><polygon id="Vase_shadow" data-name="Vase shadow" class="cls-1" points="0 295.77 156.1 386.07 216.3 352.57 60.4 262.27 0 295.77"/><path class="cls-2" d="M289.1,143.07c-8.6-4.9-22.6-5-31.2,0l-201,116c-8.6,5-8.6,13,0,18l129.5,74.8c8.6,5,22.6,5,31.2,0l201-116c8.6-5,8.6-13,0-18Z"/><path class="cls-3" d="M289.1,139.07c-8.6-4.9-22.6-5-31.2,0l-201,116c-8.6,5-8.6,13,0,18l129.5,74.8c8.6,5,22.6,5,31.2,0l201-116c8.6-5,8.6-13,0-18Z"/><path class="cls-4" d="M283.5,156.87c-8.6-4.9-22.6-5-31.2,0l-164.5,95c-8.6,5-8.6,13,0,18l104.3,60.2c8.6,5,22.6,5,31.2,0l164.5-95c8.6-5,8.6-13.1,0-18Z"/><path class="cls-2" d="M331.5,173.87a10,10,0,0,1,8.9,0c2.5,1.4,2.5,3.7,0,5.2a9.65,9.65,0,0,1-8.9,0C329.1,177.57,329.1,175.27,331.5,173.87Z"/><path class="cls-5" d="M320.1,250.37c5.1,2.9,5.7,7.4,1.3,9.9s-12.1,2.2-17.2-.8l-92.9-53.6c-5.1-2.9-5.7-7.4-1.3-9.9s12.1-2.2,17.2.8Z"/><path class="cls-6" d="M327.1,250a8,8,0,0,1,.2,13.7c-4.8,2.8-12.4,5.9-21,1.9l-102.8-59.3c-5.6-3.3-4.2-10.7.5-13.7,5.3-3.5,14.7-5.1,20.3-1.9Z"/><path class="cls-7" d="M318.3,259.57V141.07a7.82,7.82,0,0,0-4-6.9L216.9,78a4,4,0,0,0-6,3.5l.5,116.4Z"/><path class="cls-8" d="M318.3,259.57l-71.6,42.3a7.82,7.82,0,0,0-4-6.9l-97.4-56.2a4,4,0,0,0-6,3.5L211.4,198Z"/><path class="cls-9" d="M219.9,119.77c0-11.3,8-16,17.9-10.3s17.9,19.6,17.9,30.9-8,16-17.9,10.3S219.9,131.07,219.9,119.77Z"/><path class="cls-10" d="M304.3,153.47a5.73,5.73,0,0,1,2.6,4.5v4.6c0,1.7-1.2,2.3-2.6,1.5l-39.8-23a5.73,5.73,0,0,1-2.6-4.5V132a1.6,1.6,0,0,1,2.6-1.5Z"/><path class="cls-10" d="M304.3,204.57a5.89,5.89,0,0,1,2.6,4.5v4.6c0,1.7-1.2,2.3-2.6,1.5l-81.7-47.3a5.89,5.89,0,0,1-2.6-4.5v-4.6a1.6,1.6,0,0,1,2.6-1.5Z"/><path class="cls-10" d="M304.3,224.57a5.89,5.89,0,0,1,2.6,4.5v4.6c0,1.7-1.2,2.3-2.6,1.5l-81.7-47.3a5.89,5.89,0,0,1-2.6-4.5v-4.6a1.6,1.6,0,0,1,2.6-1.5Z"/><path class="cls-10" d="M304.3,173.47a5.73,5.73,0,0,1,2.6,4.5v4.6c0,1.7-1.2,2.3-2.6,1.5l-39.8-23a5.73,5.73,0,0,1-2.6-4.5V152a1.6,1.6,0,0,1,2.6-1.5Z"/><path class="cls-11" d="M232.2,122.87c0-3.5,2.5-5,5.6-3.2a12.31,12.31,0,0,1,5.6,9.6c0,3.5-2.5,5-5.6,3.2A12.31,12.31,0,0,1,232.2,122.87Z"/><path class="cls-11" d="M226.6,139.67c3.1,4.6,6.9,8.6,11.2,11s8.1,3,11.2,1.9c-.4-6.9-5.3-15-11.2-18.4S227.1,133.17,226.6,139.67Z"/><path class="cls-12" d="M279.7,216.47V114.17L217,78a4,4,0,0,0-6,3.5l.4,102.6,62.3,36A4.09,4.09,0,0,0,279.7,216.47Z"/><path class="cls-13" d="M273.7,63.87a7.82,7.82,0,0,0-4-6.9L172.3.77a4,4,0,0,0-6,3.5v3.4c-.6,4.6-4.1,5.2-6.4,3.9l-6.2-3.5c-2.5-1.4-4.6-.4-4.6,2.4s2.1,6.1,4.6,7.6l5.5,3.1a12.82,12.82,0,0,1,6.5,11.1,8.37,8.37,0,0,1-12.5,7.3l-20.9-11.9c-3.6-2.1-6.6-.5-6.6,3.4s3,8.8,6.7,10.9l26.8,15.2a13.48,13.48,0,0,1,7,11.5,5.24,5.24,0,0,1-7.8,4.6l-12.4-7c-2.4-1.4-4.4-.4-4.4,2.2a9.37,9.37,0,0,0,4.4,7.2l13.2,7.5a13.91,13.91,0,0,1,7.1,12.1v5.6a4.31,4.31,0,0,1-6.4,3.8c-3.6-2.1-6.6-.5-6.6,3.4s3,8.8,6.7,10.9l.8.4a11.16,11.16,0,0,1,5.6,8.5l.1,29.3a7.94,7.94,0,0,0,4,6.9L267.4,220a4,4,0,0,0,6-3.5Z"/><path class="cls-5" d="M247.7,292.17c5.1,2.9,5.7,7.4,1.3,9.9s-12.1,2.2-17.2-.8l-92.9-53.6c-5.1-2.9-5.7-7.4-1.3-9.9s12.1-2.2,17.2.8Z"/><path class="cls-14" d="M246.8,301l-71.6,42.3a7.82,7.82,0,0,0-4-6.9l-97.4-56.2a4,4,0,0,0-6,3.5l72.1-44.3Z"/><path class="cls-6" d="M254.7,291.87a8,8,0,0,1,.2,13.7c-4.8,2.8-12.4,5.9-21,1.9l-102.7-59.3c-5.6-3.3-4.2-10.7.5-13.7,5.3-3.5,14.7-5.1,20.3-1.9Z"/><path class="cls-9" d="M176.6,47c0-11.3,8-16,17.9-10.3s17.9,19.6,17.9,30.9-8,16-17.9,10.3S176.6,58.27,176.6,47Z"/><path class="cls-11" d="M260.9,80.77a5.73,5.73,0,0,1,2.6,4.5v4.6a1.6,1.6,0,0,1-2.6,1.5l-39.8-23a5.73,5.73,0,0,1-2.6-4.5v-4.6a1.6,1.6,0,0,1,2.6-1.5Z"/><path class="cls-11" d="M260.9,131.87a5.89,5.89,0,0,1,2.6,4.5V141a1.6,1.6,0,0,1-2.6,1.5l-81.7-47.3a5.89,5.89,0,0,1-2.6-4.5v-4.6a1.6,1.6,0,0,1,2.6-1.5Z"/><path class="cls-11" d="M260.9,151.87a5.89,5.89,0,0,1,2.6,4.5V161a1.6,1.6,0,0,1-2.6,1.5l-81.7-47.3a5.89,5.89,0,0,1-2.6-4.5v-4.6a1.6,1.6,0,0,1,2.6-1.5Z"/><path class="cls-11" d="M260.9,100.77a5.73,5.73,0,0,1,2.6,4.5v4.6a1.6,1.6,0,0,1-2.6,1.5l-39.8-23a5.73,5.73,0,0,1-2.6-4.5v-4.6a1.6,1.6,0,0,1,2.6-1.5Z"/><path class="cls-11" d="M188.9,50.07c0-3.5,2.5-5,5.6-3.2a12.31,12.31,0,0,1,5.6,9.6c0,3.5-2.5,5-5.6,3.2A12.31,12.31,0,0,1,188.9,50.07Z"/><path class="cls-11" d="M183.2,66.87c3.1,4.6,6.9,8.6,11.2,11s8.1,3,11.2,1.9c-.4-6.9-5.3-15-11.2-18.4S183.7,60.47,183.2,66.87Z"/><path class="cls-11" d="M260.9,171.87a5.89,5.89,0,0,1,2.6,4.5V181a1.6,1.6,0,0,1-2.6,1.5l-81.7-47.3a5.89,5.89,0,0,1-2.6-4.5v-4.6a1.6,1.6,0,0,1,2.6-1.5Z"/><path class="cls-11" d="M260.9,191.87a5.89,5.89,0,0,1,2.6,4.5V201a1.6,1.6,0,0,1-2.6,1.5l-81.7-47.3a5.89,5.89,0,0,1-2.6-4.5v-4.6a1.6,1.6,0,0,1,2.6-1.5Z"/><path class="cls-12" d="M252.8,169.27a7.82,7.82,0,0,0-4-6.9l-78.1-45.1a2.68,2.68,0,0,0-4,2.3l.1,17.5a7.94,7.94,0,0,0,4,6.9l40.6,23.4.1,30.4,41.3,23.9Z"/><path class="cls-7" d="M246.8,300.77V182.27a7.82,7.82,0,0,0-4-6.9l-97.4-56.2a4,4,0,0,0-6,3.5l.5,116.4Z"/><path class="cls-2" d="M149.6,163.17c0-11.3,8-16,17.9-10.3s17.9,19.6,17.9,30.9-8,16-17.9,10.3S149.6,174.47,149.6,163.17Z"/><path class="cls-10" d="M233.9,196.87a5.73,5.73,0,0,1,2.6,4.5V206a1.6,1.6,0,0,1-2.6,1.5l-39.8-23a5.73,5.73,0,0,1-2.6-4.5v-4.5c0-1.7,1.2-2.3,2.6-1.5Z"/><path class="cls-10" d="M233.9,248.07a5.89,5.89,0,0,1,2.6,4.5v4.6a1.6,1.6,0,0,1-2.6,1.5l-81.7-47.3a5.89,5.89,0,0,1-2.6-4.5v-4.6c0-1.7,1.2-2.3,2.6-1.5Z"/><path class="cls-10" d="M233.9,268.07a5.89,5.89,0,0,1,2.6,4.5v4.6a1.6,1.6,0,0,1-2.6,1.5l-81.7-47.3a5.89,5.89,0,0,1-2.6-4.5v-4.6c0-1.7,1.2-2.3,2.6-1.5Z"/><path class="cls-10" d="M233.9,216.87a5.73,5.73,0,0,1,2.6,4.5V226a1.6,1.6,0,0,1-2.6,1.5l-39.8-23a5.73,5.73,0,0,1-2.6-4.5v-4.5c0-1.7,1.2-2.3,2.6-1.5Z"/><path class="cls-11" d="M161.9,166.27c0-3.5,2.5-5,5.6-3.2a12.31,12.31,0,0,1,5.6,9.6c0,3.5-2.5,5-5.6,3.2A12.31,12.31,0,0,1,161.9,166.27Z"/><path class="cls-11" d="M156.3,183.07c3.1,4.6,6.9,8.6,11.2,11s8.1,3,11.2,1.9c-.4-6.9-5.3-15-11.2-18.4S156.8,176.67,156.3,183.07Z"/><path class="cls-12" d="M139.9,239.07l15.1,8.7.1-22.6a13.52,13.52,0,0,0-6-10.5l-9.2-5.3Z"/><path class="cls-2" d="M78.3,248.27a13.46,13.46,0,0,1-6.1-10.5v-47.9c0-3.8,2.7-5.4,6.1-3.5l59.6,34.4c3.3,1.9,6.1,6.7,6,10.5l-.1,47.8c0,3.8-2.7,5.4-6.1,3.5Z"/><path class="cls-15" d="M103.7,242.87l40.3-11.4s.3-5.6-5.4-10.4Z"/><path class="cls-3" d="M103.1,240.67l-27.9-52.4a1.77,1.77,0,0,1,2.4-2.4l60,34.6a3.84,3.84,0,0,1-.3,6.8l-31.4,14.3A2.09,2.09,0,0,1,103.1,240.67Z"/><path class="cls-9" d="M104.7,235.37c-2.6-1.5-4.7-.3-4.7,2.7a10.48,10.48,0,0,0,4.7,8.2c2.6,1.5,4.7.3,4.7-2.7A10.33,10.33,0,0,0,104.7,235.37Z"/><path class="cls-13" d="M138,66.17a9,9,0,0,0-4.4-7.1l-3.9-2.2c-2.4-1.4-4.3-.4-4.3,2.2a9,9,0,0,0,4.4,7.1l3.9,2.2C136.1,69.77,138,68.77,138,66.17Z"/></g></g></svg>