<svg xmlns="http://www.w3.org/2000/svg" viewBox="0 0 219.84 212.96"><defs><style>.cls-1{fill:#f2f2f2;}.cls-2{fill:none;stroke:#000;stroke-linecap:round;stroke-miterlimit:10;stroke-width:5px;}.cls-3{fill:#fff;}.cls-4{fill:#dd1843;}.cls-5{fill:#011627;}</style></defs><title>benefit-companies2</title><g id="Ebene_2" data-name="Ebene 2"><g id="Ebene_2-2" data-name="Ebene 2"><g id="Relevance"><path class="cls-1" d="M202.84,165.56h-43a16,16,0,0,1-16-16V93.86a16,16,0,0,1,16-16h43a16,16,0,0,1,16,16v55.7A16.11,16.11,0,0,1,202.84,165.56Z"/><path d="M218.74,136.56a1,1,0,0,1-1-1v-4.9a1,1,0,1,1,2,0v4.9A1,1,0,0,1,218.74,136.56Z"/><path d="M218.84,127.06a1,1,0,0,1-1-1V93.86a15,15,0,0,0-15-15h-43a15,15,0,0,0-15,15v5.7a1,1,0,0,1-2,0v-5.7a17,17,0,0,1,17-17h43a17,17,0,0,1,17,17v32.2A1,1,0,0,1,218.84,127.06Z"/><path d="M202.74,166.56h-43a17,17,0,0,1-17-17v-29.4a1,1,0,1,1,2,0v29.4a15,15,0,0,0,15,15h43a15,15,0,0,0,15-15v-4.3a1,1,0,0,1,2,0v4.3A17,17,0,0,1,202.74,166.56Z"/><line class="cls-2" x1="158.64" y1="99.56" x2="205.14" y2="99.56"/><line class="cls-2" x1="158.64" y1="120.76" x2="205.14" y2="120.76"/><line class="cls-2" x1="158.64" y1="141.86" x2="205.14" y2="141.86"/><circle class="cls-3" cx="169.74" cy="99.56" r="6.3"/><circle class="cls-3" cx="182.34" cy="120.76" r="6.3"/><circle class="cls-3" cx="195.04" cy="141.86" r="6.3"/><path class="cls-1" d="M128.34,22.26l-5.3-11a18,18,0,0,0-24.1-8.4l-87.5,42.3A18,18,0,0,0,3,69.26l5.7,11.8Z"/><circle class="cls-4" cx="78.12" cy="71.64" r="17.2" transform="translate(-27.57 63.63) rotate(-38.19)"/><path d="M83.18,211.92A19.11,19.11,0,0,1,66,201.2l-7.1-14.6a1,1,0,0,1,1.8-.88l7.1,14.6a17,17,0,0,0,22.86,7.84l87.3-42.7a1,1,0,0,1,1.34.46,1,1,0,0,1-.46,1.34L91.58,210A19.16,19.16,0,0,1,83.18,211.92Z"/><path d="M54.74,176.86a1,1,0,0,1-.9-.56L1.94,70.2A19.11,19.11,0,0,1,10.7,44.66L98,2a19.06,19.06,0,0,1,25.54,8.76L145.74,56a1,1,0,0,1-1.8.88l-22.2-45.3A17,17,0,0,0,98.88,3.76l-87.3,42.7A17.1,17.1,0,0,0,3.74,69.32l51.9,106.1a1,1,0,0,1-.46,1.34A1,1,0,0,1,54.74,176.86Z"/><path d="M152.14,72.46a1,1,0,0,1-.9-.57l-3.1-6.4a1,1,0,0,1,1.8-.87L153,71a1,1,0,0,1-.47,1.34A1,1,0,0,1,152.14,72.46Z"/><path d="M78.11,89.92a18.21,18.21,0,1,1,8-1.85A18.22,18.22,0,0,1,78.11,89.92Zm0-34.41A16.13,16.13,0,0,0,71,57.16h0a16.1,16.1,0,1,0,7.1-1.65Zm-7.54.76h0Z"/><path class="cls-1" d="M126.34,105.46l-51.2,25a3,3,0,0,1-4-1.4h0a3,3,0,0,1,1.4-4l51.2-25a3,3,0,0,1,4,1.4h0A3.09,3.09,0,0,1,126.34,105.46Z"/><path class="cls-1" d="M132,117.16l-51.2,25a3,3,0,0,1-4-1.4h0a3,3,0,0,1,1.4-4l51.2-25a3,3,0,0,1,4,1.4h0A3,3,0,0,1,132,117.16Z"/><path class="cls-1" d="M137.74,129l-51.2,25a3,3,0,0,1-4-1.4h0a3,3,0,0,1,1.4-4l51.2-25a3,3,0,0,1,4,1.4h0A3.06,3.06,0,0,1,137.74,129Z"/><path class="cls-1" d="M120.14,92.86l-51.3,24.8a3,3,0,0,1-4-1.4h0a3,3,0,0,1,1.4-4l51.3-24.8a3,3,0,0,1,4,1.4h0A3.06,3.06,0,0,1,120.14,92.86Z"/><path class="cls-5" d="M163.34,165.56s1.6,5.4-6.5,11.5l24.4-11.5Z"/><path d="M169.74,106.86a7.3,7.3,0,1,1,7.3-7.3A7.31,7.31,0,0,1,169.74,106.86Zm0-12.6a5.3,5.3,0,1,0,5.3,5.3A5.31,5.31,0,0,0,169.74,94.26Z"/><path d="M182.34,128.06a7.3,7.3,0,1,1,7.3-7.3A7.31,7.31,0,0,1,182.34,128.06Zm0-12.6a5.3,5.3,0,1,0,5.3,5.3A5.31,5.31,0,0,0,182.34,115.46Z"/><path d="M195,149.16a7.3,7.3,0,1,1,7.3-7.3A7.31,7.31,0,0,1,195,149.16Zm0-12.6a5.3,5.3,0,1,0,5.3,5.3A5.31,5.31,0,0,0,195,136.56Z"/><path d="M117.34,213H65.54a1,1,0,1,1,0-2h51.8a1,1,0,0,1,0,2Z"/><path d="M137.44,213h-12.7a1,1,0,1,1,0-2h12.7a1,1,0,0,1,0,2Z"/></g></g></g></svg>