<svg xmlns="http://www.w3.org/2000/svg" viewBox="0 0 213.6 191.9"><defs><style>.cls-1{fill:#f2f2f2;}.cls-2{fill:#011627;}.cls-3{fill:#dd1843;}</style></defs><title>benefit-companies1</title><g id="Ebene_2" data-name="Ebene 2"><g id="Ebene_2-2" data-name="Ebene 2"><g id="Speed"><path class="cls-1" d="M1,40.5V20.2A19.27,19.27,0,0,1,20.2,1H193.4a19.27,19.27,0,0,1,19.2,19.2V40.5"/><polyline class="cls-2" points="130.4 166.5 129.6 156.8 84.1 156.8 83.3 166.5"/><path d="M193.4,157.7H20.2A20.22,20.22,0,0,1,0,137.5V112.3a1,1,0,0,1,2,0v25.2a18.22,18.22,0,0,0,18.2,18.2H193.4a18.21,18.21,0,0,0,18.2-18.2V20.2A18.21,18.21,0,0,0,193.4,2H20.2A18.22,18.22,0,0,0,2,20.2V88.6a1,1,0,0,1-2,0V20.2A20.22,20.22,0,0,1,20.2,0H193.4a20.22,20.22,0,0,1,20.2,20.2V137.5A20.22,20.22,0,0,1,193.4,157.7Z"/><path d="M132.5,191.9a1,1,0,0,1-1-.92l-2.82-33.18H85L82.2,191a1,1,0,1,1-2-.17l3-35h47.34l3,35a1,1,0,0,1-.92,1.09Z"/><path d="M139.6,191.9H77.1a1,1,0,0,1,0-2h62.5a1,1,0,0,1,0,2Z"/><path d="M72.7,191.9H66.9a1,1,0,0,1,0-2h5.8a1,1,0,1,1,0,2Z"/><path d="M146.8,191.9H143a1,1,0,0,1,0-2h3.8a1,1,0,0,1,0,2Z"/><circle class="cls-1" cx="106.8" cy="55.5" r="12"/><path class="cls-1" d="M125.1,89.1H88.5a2.9,2.9,0,0,1-2.9-2.9h0a2.9,2.9,0,0,1,2.9-2.9h36.6a2.9,2.9,0,0,1,2.9,2.9h0A2.9,2.9,0,0,1,125.1,89.1Z"/><path class="cls-1" d="M125.1,101.1H88.5a2.9,2.9,0,0,1-2.9-2.9h0a2.9,2.9,0,0,1,2.9-2.9h36.6a2.9,2.9,0,0,1,2.9,2.9h0A2.9,2.9,0,0,1,125.1,101.1Z"/><circle class="cls-3" cx="164.6" cy="31.4" r="12"/><path class="cls-1" d="M182.9,65H146.3a2.9,2.9,0,0,1-2.9-2.9h0a2.9,2.9,0,0,1,2.9-2.9h36.6a2.9,2.9,0,0,1,2.9,2.9h0A3,3,0,0,1,182.9,65Z"/><path class="cls-1" d="M182.9,77.1H146.3a2.9,2.9,0,0,1-2.9-2.9h0a2.9,2.9,0,0,1,2.9-2.9h36.6a2.9,2.9,0,0,1,2.9,2.9h0A3,3,0,0,1,182.9,77.1Z"/><path d="M162.4,139.6H30.4A13.61,13.61,0,0,1,16.8,126V54.4a1,1,0,0,1,2,0V126a11.61,11.61,0,0,0,11.6,11.6h132a1,1,0,0,1,0,2Z"/><path d="M17.8,50.1a1,1,0,0,1-1-1V35.2a1,1,0,0,1,2,0V49.1A1,1,0,0,1,17.8,50.1Z"/><path d="M174.7,139.6h-6.6a1,1,0,0,1,0-2h6.6a1,1,0,0,1,0,2Z"/><path d="M183.4,139.6h-3.7a1,1,0,0,1,0-2h3.7a1,1,0,0,1,0,2Z"/><path class="cls-1" d="M182.9,89.6H146.3a2.9,2.9,0,0,1-2.9-2.9h0a2.9,2.9,0,0,1,2.9-2.9h36.6a2.9,2.9,0,0,1,2.9,2.9h0A3,3,0,0,1,182.9,89.6Z"/><path class="cls-1" d="M182.9,101.6H146.3a2.9,2.9,0,0,1-2.9-2.9h0a2.9,2.9,0,0,1,2.9-2.9h36.6a2.9,2.9,0,0,1,2.9,2.9h0A3,3,0,0,1,182.9,101.6Z"/><path class="cls-1" d="M182.9,113.6H146.3a2.9,2.9,0,0,1-2.9-2.9h0a2.9,2.9,0,0,1,2.9-2.9h36.6a2.9,2.9,0,0,1,2.9,2.9h0A3,3,0,0,1,182.9,113.6Z"/><path class="cls-1" d="M125.1,113.6H88.5a2.9,2.9,0,0,1-2.9-2.9h0a2.9,2.9,0,0,1,2.9-2.9h36.6a2.9,2.9,0,0,1,2.9,2.9h0A2.9,2.9,0,0,1,125.1,113.6Z"/><circle class="cls-1" cx="49.1" cy="80.5" r="12"/><path class="cls-1" d="M67.4,114.1H30.8a2.9,2.9,0,0,1-2.9-2.9h0a2.9,2.9,0,0,1,2.9-2.9H67.4a2.9,2.9,0,0,1,2.9,2.9h0A2.9,2.9,0,0,1,67.4,114.1Z"/><path class="cls-3" d="M144.9,32.4H132.6a1,1,0,0,1,0-2h12.3a1,1,0,0,1,0,2Z"/><path class="cls-3" d="M149.7,26.7h-9.4a1,1,0,0,1,0-2h9.4a1,1,0,0,1,0,2Z"/><path class="cls-3" d="M150.7,38.2h-8.4a1,1,0,0,1,0-2h8.4a1,1,0,0,1,0,2Z"/><path class="cls-3" d="M138.1,38.2h-2.6a1,1,0,0,1,0-2h2.6a1,1,0,0,1,0,2Z"/><path class="cls-3" d="M128.5,32.4H124a1,1,0,0,1,0-2h4.5a1,1,0,0,1,0,2Z"/><path d="M164.6,44.4a13,13,0,1,1,13-13A13,13,0,0,1,164.6,44.4Zm0-24a11,11,0,1,0,11,11A11,11,0,0,0,164.6,20.4Z"/></g></g></g></svg>