<svg xmlns="http://www.w3.org/2000/svg" viewBox="0 0 184.62 212.96"><defs><style>.cls-1{fill:#f2f2f2;}.cls-2{fill:#011627;}.cls-3{fill:#dd1843;}.cls-4{fill:#e6e6e6;}</style></defs><title>benefit-companies4</title><g id="Ebene_2" data-name="Ebene 2"><g id="Ebene_2-2" data-name="Ebene 2"><g id="Sharing"><path class="cls-1" d="M136.15,93.16,44,106.06a3,3,0,0,1-3.4-2.6h0a3,3,0,0,1,2.6-3.4l92.2-12.9a3,3,0,0,1,3.4,2.6h0A3.17,3.17,0,0,1,136.15,93.16Z"/><path class="cls-1" d="M137.85,105.56l-92.2,12.9a3,3,0,0,1-3.4-2.6h0a3,3,0,0,1,2.6-3.4l92.2-12.9a3,3,0,0,1,3.4,2.6h0A3.17,3.17,0,0,1,137.85,105.56Z"/><path class="cls-1" d="M139.55,117.86l-92.2,12.9a3,3,0,0,1-3.4-2.6h0a3,3,0,0,1,2.6-3.4l92.2-12.9a3,3,0,0,1,3.4,2.6h0A3,3,0,0,1,139.55,117.86Z"/><path class="cls-1" d="M141.35,130.26l-92.2,12.9a3,3,0,0,1-3.4-2.6h0a3,3,0,0,1,2.6-3.4l92.2-12.9a3,3,0,0,1,3.4,2.6h0A3,3,0,0,1,141.35,130.26Z"/><path class="cls-1" d="M143.25,143.66l-92.2,12.9a3,3,0,0,1-3.4-2.6h0a3,3,0,0,1,2.6-3.4l92.2-12.9a3,3,0,0,1,3.4,2.6h0A3.19,3.19,0,0,1,143.25,143.66Z"/><path class="cls-1" d="M145,156.06,52.75,169a3,3,0,0,1-3.4-2.6h0A3,3,0,0,1,52,163l92.2-12.9a3,3,0,0,1,3.4,2.6h0A3.17,3.17,0,0,1,145,156.06Z"/><path class="cls-1" d="M146.65,168.36l-92.2,12.9a3,3,0,0,1-3.4-2.6h0a3,3,0,0,1,2.6-3.4l92.2-12.9a3,3,0,0,1,3.4,2.6h0A3,3,0,0,1,146.65,168.36Z"/><path d="M24.15,203.86a1,1,0,0,1-1-.87L.16,36.09a16.35,16.35,0,0,1,14-18.42l31.81-4.4a1,1,0,0,1,1.12.85,1,1,0,0,1-.85,1.13l-31.8,4.4A14.36,14.36,0,0,0,2.14,35.81l23,166.91a1,1,0,0,1-.85,1.13Z"/><path d="M114.45,206.86a1,1,0,0,1-.13-2l53.5-7.4a14.36,14.36,0,0,0,12.24-16.17l-23-166.91A14.42,14.42,0,0,0,151.5,4.9a14.11,14.11,0,0,0-10.61-2.75l-80.1,11a1,1,0,1,1-.27-2l80.1-11a16,16,0,0,1,12.09,3.14A16.36,16.36,0,0,1,159,14.12L182,181a16.08,16.08,0,0,1-3.14,12.09,16.38,16.38,0,0,1-10.8,6.34l-53.51,7.4Z"/><path d="M70.55,213a1,1,0,0,1-.13-2l11.6-1.6a1,1,0,0,1,1.12.85,1,1,0,0,1-.85,1.13L70.69,213Z"/><path d="M137.55,60.56h-.1l-48.9-5.3a1,1,0,1,1,.21-2l48.9,5.3a1,1,0,0,1-.11,2Z"/><path class="cls-2" d="M158.35,16.66l3.5,23.8-22.3,6C139.65,46.46,160.35,36.56,158.35,16.66Z"/><path d="M107.55,136a1,1,0,0,1-.58-.19,1,1,0,0,1-.23-1.39l40-56.5A1,1,0,0,1,148.37,79l-40,56.5A1,1,0,0,1,107.55,136Z"/><path class="cls-2" d="M143,83l24-.8,3.4,22.8S163,83.26,143,83Z"/><circle class="cls-3" cx="76.45" cy="54.27" r="17.2" transform="translate(-17.19 58.88) rotate(-38.19)"/><circle class="cls-4" cx="158.42" cy="62.38" r="26.2" transform="translate(-4.66 111.3) rotate(-38.19)"/><circle class="cls-4" cx="92.21" cy="156.27" r="32.5"/><path d="M76.49,72.47A18.2,18.2,0,0,1,65.2,40h0a18.2,18.2,0,1,1,11.29,32.5ZM66.43,41.54a16.2,16.2,0,1,0,22.75,2.71,16.21,16.21,0,0,0-22.75-2.71Z"/></g></g></g></svg>