<svg xmlns="http://www.w3.org/2000/svg" viewBox="0 0 206.71 214.29"><defs><style>.cls-1{fill:#f2f2f2;}.cls-2{fill:#011627;}.cls-3{fill:#dd1843;}</style></defs><title>benefit-companies3</title><g id="Ebene_2" data-name="Ebene 2"><g id="Ebene_2-2" data-name="Ebene 2"><g id="Feedback"><path class="cls-1" d="M203.91,99a44.37,44.37,0,0,1-36.8,50.4l-101,15.7a42.93,42.93,0,0,1-14.3-.3l-10.3-2c-16.1-3.1-29.2-15.2-32.6-31.3a17,17,0,0,1-.4-2.2"/><path class="cls-1" d="M85.11,162.09s-23.2,7.1-32.4,40.2a.36.36,0,0,1-.7,0l-6-38.5"/><path d="M52.51,168a1,1,0,0,1-1-.84,1,1,0,0,1,.83-1.15l124-19.2a33.56,33.56,0,0,0,28-38.26l-8.6-55.6a33.56,33.56,0,0,0-38.26-28L30.36,44.68a33.56,33.56,0,0,0-28,38.26L9.6,129a43.08,43.08,0,0,0,20.82,30.59,1,1,0,0,1,.35,1.37,1,1,0,0,1-1.37.35,45.07,45.07,0,0,1-21.78-32L.42,83.25A35.58,35.58,0,0,1,30.05,42.7L157.15,23A35.58,35.58,0,0,1,197.7,52.64l8.6,55.6a35.57,35.57,0,0,1-29.64,40.54L52.66,168Z"/><path d="M52.39,203.56a1.41,1.41,0,0,1-1.33-.95l0-.16-3.3-21.1a1,1,0,1,1,2-.31l2.85,18.26c5-15.7,13.06-25.09,19.16-30.28,7-6,12.86-7.81,13.1-7.88a1,1,0,0,1,1.25.66,1,1,0,0,1-.66,1.25c-.23.07-22.8,7.38-31.73,39.51a1.29,1.29,0,0,1-1.23,1ZM51.75,202v0Z"/><path d="M60.69,133.91a26.26,26.26,0,0,1-25.87-22.27L29.72,79a1,1,0,1,1,2-.31l5.1,32.7A24.24,24.24,0,0,0,64.55,131.6l95.6-14.8a1,1,0,1,1,.31,2l-95.6,14.8A26.64,26.64,0,0,1,60.69,133.91Z"/><path d="M41.71,100.79A1,1,0,0,1,41,99.1l14.5-15.3a13.84,13.84,0,0,1,19.4-.64L88,95.36a11.58,11.58,0,0,0,8.4,3.14,11.71,11.71,0,0,0,8.19-3.69l79.7-84.11a1,1,0,0,1,1.42,0,1,1,0,0,1,0,1.41L106,96.18a13.78,13.78,0,0,1-19.41.64L73.53,84.62a11.84,11.84,0,0,0-16.59.56l-14.51,15.3A1,1,0,0,1,41.71,100.79Z"/><path d="M170.91,117.19a1,1,0,0,1-.16-2l10.2-1.6a1,1,0,1,1,.31,2l-10.2,1.6Z"/><path class="cls-2" d="M57.71,167s11.7,1.6,3.6,14.2c0,0,18.6-17,21.3-18.1C85.11,162.09,57.71,167,57.71,167Z"/><circle class="cls-1" cx="172.11" cy="33.11" r="33.1" transform="translate(-2.92 42.18) rotate(-13.86)"/><path class="cls-3" d="M186.31,32.69c-1.2,7.6-9.2,12.8-16.9,11.6a14,14,0,0,1,4.1-27.7C181.11,17.69,187.51,25.09,186.31,32.69Z"/><path d="M158.61,52.89a1,1,0,0,1-.91-.58,1,1,0,0,1,.49-1.33l7.8-3.6a3.52,3.52,0,0,1,2.63-.24c4.34,1.11,7,.26,8.24-.34a3.85,3.85,0,0,1,3.2-.24l7.5,2.79a1,1,0,0,1-.7,1.88l-7.5-2.8a1.91,1.91,0,0,0-1.61.16c-1.78.89-4.91,1.69-9.69.47a1.62,1.62,0,0,0-1.21.13L159,52.8A1.06,1.06,0,0,1,158.61,52.89Z"/><path d="M171.62,45.46a16,16,0,0,1-2.37-.18,15,15,0,0,1,4.4-29.68,16.55,16.55,0,0,1,10.84,6.63,14.12,14.12,0,0,1,2.8,10.62C186.16,40,179.15,45.46,171.62,45.46Zm-.1-28a13.18,13.18,0,0,0-12.93,11.1,13.14,13.14,0,0,0,11,14.75c7.3,1.14,14.67-3.89,15.76-10.76a12.19,12.19,0,0,0-2.44-9.13,14.78,14.78,0,0,0-9.52-5.83A12.65,12.65,0,0,0,171.52,17.45Z"/><path d="M125.91,200a7.4,7.4,0,1,1,7.4-7.4A7.41,7.41,0,0,1,125.91,200Zm0-12.8a5.4,5.4,0,1,0,5.4,5.4A5.4,5.4,0,0,0,125.91,187.19Z"/><path d="M147.31,200a7.4,7.4,0,1,1,7.4-7.4A7.41,7.41,0,0,1,147.31,200Zm0-12.8a5.4,5.4,0,1,0,5.4,5.4A5.4,5.4,0,0,0,147.31,187.19Z"/><path d="M168.71,200a7.4,7.4,0,1,1,7.4-7.4A7.41,7.41,0,0,1,168.71,200Zm0-12.8a5.4,5.4,0,1,0,5.4,5.4A5.4,5.4,0,0,0,168.71,187.19Z"/><path d="M59.91,214.29H47.11a1,1,0,1,1,0-2h12.8a1,1,0,0,1,0,2Z"/></g></g></g></svg>