<svg xmlns="http://www.w3.org/2000/svg" viewBox="0 0 214.9 194.7"><defs><style>.cls-1{fill:#011627;}.cls-2{fill:#f2f2f2;}.cls-3{fill:#fff;}.cls-4{fill:#dd1843;}</style></defs><title>benefit-companies6</title><g id="Ebene_2" data-name="Ebene 2"><g id="Ebene_2-2" data-name="Ebene 2"><g id="Flexibility"><path class="cls-1" d="M192.5,163.5s-11.4.9-15.6,8.7l.5-10.2Z"/><path class="cls-2" d="M196.4,163.5H138.5A18.52,18.52,0,0,1,120,145V49.7a18.52,18.52,0,0,1,18.5-18.5h57.9a18.52,18.52,0,0,1,18.5,18.5v95.4A18.57,18.57,0,0,1,196.4,163.5Z"/><path class="cls-2" d="M76.4,163.5H18.5A18.52,18.52,0,0,1,0,145V49.7A18.52,18.52,0,0,1,18.5,31.2H76.4A18.52,18.52,0,0,1,94.9,49.7v95.4A18.57,18.57,0,0,1,76.4,163.5Z"/><path class="cls-3" d="M38.5,56.2H6.2a1,1,0,0,1,0-2H38.5a1,1,0,0,1,0,2Z"/><path class="cls-3" d="M208.5,56.2H176.2a1,1,0,0,1,0-2h32.3a1,1,0,0,1,0,2Z"/><path class="cls-3" d="M149.6,193.7H65.4a26.91,26.91,0,0,1-26.9-26.9V27.9A26.91,26.91,0,0,1,65.4,1h84.2a26.91,26.91,0,0,1,26.9,26.9V166.7A27,27,0,0,1,149.6,193.7Z"/><path class="cls-2" d="M176.5,42V28A26.91,26.91,0,0,0,149.6,1.1H65.4A26.91,26.91,0,0,0,38.5,28V42Z"/><path d="M176.5,98.4a1,1,0,0,1-1-1V28A25.93,25.93,0,0,0,149.6,2.1H96.9a1,1,0,0,1,0-2h52.7A27.94,27.94,0,0,1,177.5,28V97.4A1,1,0,0,1,176.5,98.4Z"/><path d="M38.5,147.3a1,1,0,0,1-1-1V27.9A27.94,27.94,0,0,1,65.4,0H81.6a1,1,0,0,1,0,2H65.4A25.93,25.93,0,0,0,39.5,27.9V146.3A1,1,0,0,1,38.5,147.3Z"/><path d="M72.2,194.7H65.3a27.94,27.94,0,0,1-27.9-27.9V156.1a1,1,0,0,1,2,0v10.7a25.93,25.93,0,0,0,25.9,25.9h6.9a1,1,0,0,1,0,2Z"/><path d="M149.6,194.7H78.3a1,1,0,0,1,0-2h71.3a25.93,25.93,0,0,0,25.9-25.9V116.7a1,1,0,1,1,2,0v50.1A27.94,27.94,0,0,1,149.6,194.7Z"/><circle class="cls-2" cx="67" cy="64.2" r="9"/><circle class="cls-2" cx="67" cy="94.2" r="9"/><circle class="cls-2" cx="67" cy="124.2" r="9"/><circle class="cls-2" cx="67" cy="154.2" r="9"/><circle class="cls-4" cx="143.76" cy="162.33" r="22.1"/><path d="M143.79,185.42a23.08,23.08,0,1,1,14.26-4.94A23.05,23.05,0,0,1,143.79,185.42Zm-13.07-39.68a21.1,21.1,0,1,0,29.63,3.54,21,21,0,0,0-29.63-3.54Zm-.62-.78h0Z"/><circle class="cls-3" cx="194.28" cy="143.22" r="12.7" transform="translate(-46.97 150.77) rotate(-38.19)"/><circle class="cls-3" cx="17" cy="74.2" r="6.4"/><circle class="cls-3" cx="17" cy="94.2" r="6.4"/><circle class="cls-3" cx="17" cy="114.2" r="6.4"/><circle class="cls-3" cx="17" cy="134.2" r="6.4"/><path class="cls-2" d="M147.6,67.2h-62a3,3,0,0,1-3-3h0a3,3,0,0,1,3-3h62a3,3,0,0,1,3,3h0A3,3,0,0,1,147.6,67.2Z"/><path class="cls-2" d="M147.6,97.2h-62a3,3,0,0,1-3-3h0a3,3,0,0,1,3-3h62a3,3,0,0,1,3,3h0A3,3,0,0,1,147.6,97.2Z"/><path class="cls-2" d="M147.6,127.2h-62a3,3,0,0,1-3-3h0a3,3,0,0,1,3-3h62a3,3,0,0,1,3,3h0A3,3,0,0,1,147.6,127.2Z"/><path class="cls-2" d="M113.5,157.2H84.7a2.11,2.11,0,0,1-2.1-2.1v-1.8a2.11,2.11,0,0,1,2.1-2.1h28.8a2.11,2.11,0,0,1,2.1,2.1v1.8A2.11,2.11,0,0,1,113.5,157.2Z"/></g></g></g></svg>