<svg xmlns="http://www.w3.org/2000/svg" viewBox="0 0 194.38 203.88"><defs><style>.cls-1{fill:#f2f2f2;}.cls-2{fill:#dd1843;}.cls-3{fill:#fff;}.cls-4{fill:#011627;}</style></defs><title>benefit-companies5</title><g id="Ebene_2" data-name="Ebene 2"><g id="Ebene_2-2" data-name="Ebene 2"><g id="Integration"><path class="cls-1" d="M140.54,112.54a22.07,22.07,0,0,0-22.2,6.9,28,28,0,0,1-48.9-12.2,21.79,21.79,0,0,0-16.3-16.5l-14.2-3.5a21.92,21.92,0,0,0-26.5,15.9l-10.9,43.8a21.92,21.92,0,0,0,15.9,26.5l115.8,28.7a21.92,21.92,0,0,0,26.5-15.9l10.9-43.8a21.92,21.92,0,0,0-15.9-26.5Z"/><path d="M138.66,203.88a22.73,22.73,0,0,1-5.46-.67l-80.3-19.9a1,1,0,0,1,.48-1.94l80.3,19.9A21,21,0,0,0,159,186.09l3.4-13.89a1,1,0,0,1,1.21-.73,1,1,0,0,1,.73,1.21l-3.4,13.9A23.07,23.07,0,0,1,138.66,203.88Z"/><path d="M33.44,178.44a1,1,0,0,1-.24,0l-15.9-3.9A23,23,0,0,1,.67,146.8l6-24.3a1,1,0,1,1,1.94.48l-6,24.3a21,21,0,0,0,15.18,25.29l15.89,3.9a1,1,0,0,1-.24,2Z"/><path d="M97,130.51a29.31,29.31,0,0,1-7.12-.9,29,29,0,0,1-21.44-22.16A20.87,20.87,0,0,0,52.9,91.71l-14.2-3.5a21,21,0,0,0-25.29,15.18L11,113.08a1,1,0,1,1-1.94-.48l2.4-9.7A23,23,0,0,1,39.18,86.27l14.2,3.5a22.88,22.88,0,0,1,17,17.27,27,27,0,0,0,20,20.63,26.12,26.12,0,0,0,10.21.58,1,1,0,0,1,1.14.84,1,1,0,0,1-.84,1.14A26.32,26.32,0,0,1,97,130.51Z"/><path d="M169,150.14l-.24,0a1,1,0,0,1-.73-1.21l1.6-6.6A21,21,0,0,0,154.49,117l-14.19-3.5a21.2,21.2,0,0,0-21.2,6.57A28,28,0,0,1,108.64,128a1,1,0,0,1-.8-1.84,26.06,26.06,0,0,0,9.72-7.31,23.18,23.18,0,0,1,23.22-7.24l14.2,3.5a23,23,0,0,1,16.63,27.71l-1.6,6.59A1,1,0,0,1,169,150.14Z"/><path d="M100.65,118.66a28.37,28.37,0,0,1-7-.85,29.64,29.64,0,0,1-15-9.21,1,1,0,1,1,1.5-1.32,27.75,27.75,0,0,0,14,8.59,27.05,27.05,0,0,0,27.29-9,23,23,0,0,1,23.21-7.33l14.1,3.5a21,21,0,0,0,25.29-15.18l7.7-31.19a21,21,0,0,0-15.18-25.29L91.4,10.31a1,1,0,0,1,.48-1.94l85.2,21.1a23,23,0,0,1,16.63,27.71L186,88.38A23,23,0,0,1,158.3,105l-14.1-3.5A21,21,0,0,0,123,108.18,29.07,29.07,0,0,1,100.65,118.66Z"/><path d="M76.74,105.34a1,1,0,0,1-.85-.48,30.35,30.35,0,0,1-3.73-9.31A20.94,20.94,0,0,0,56.6,79.71l-14.1-3.5A23,23,0,0,1,25.87,48.5l7.7-31.2A23,23,0,0,1,61.28.67l19.1,4.7a1,1,0,0,1-.48,1.94L60.8,2.61A21,21,0,0,0,35.51,17.79L27.81,49A21,21,0,0,0,43,74.27l14.09,3.5a23,23,0,0,1,17,17.37,28.51,28.51,0,0,0,3.47,8.68,1,1,0,0,1-.33,1.37A1,1,0,0,1,76.74,105.34Z"/><circle class="cls-2" cx="101.22" cy="89.18" r="15.5"/><path d="M101.25,105.69a16.73,16.73,0,0,1-2-.12,16.41,16.41,0,1,1,2,.12Zm-.06-31a14.33,14.33,0,0,0-8.94,3.11,14.5,14.5,0,0,0,7.25,25.79,14.33,14.33,0,0,0,10.68-3,14.51,14.51,0,0,0-7.24-25.8A14.79,14.79,0,0,0,101.19,74.68Z"/><path class="cls-3" d="M164.64,198.14l-45.3-11.5a9.67,9.67,0,0,1-7-11.7l5.2-20.7a9.67,9.67,0,0,1,11.7-7l45.3,11.5a9.67,9.67,0,0,1,7,11.7l-5.2,20.7A9.64,9.64,0,0,1,164.64,198.14Z"/><path d="M179.84,178.14a1.07,1.07,0,0,1-.25,0,1,1,0,0,1-.72-1.22l1.7-6.6a8.67,8.67,0,0,0-6.28-10.48l-24.9-6.3a1,1,0,0,1,.49-1.94l24.9,6.3a10.69,10.69,0,0,1,7.73,12.91l-1.7,6.61A1,1,0,0,1,179.84,178.14Z"/><path d="M166.87,199.43a10.83,10.83,0,0,1-2.57-.32L119,187.61a10.68,10.68,0,0,1-7.72-12.91l5.2-20.7a10.69,10.69,0,0,1,12.91-7.73l7.2,1.8a1,1,0,1,1-.48,1.94l-7.2-1.8a8.67,8.67,0,0,0-10.49,6.28l-5.2,20.69a8.68,8.68,0,0,0,6.28,10.49l45.3,11.5a8.68,8.68,0,0,0,10.48-6.28l2.2-8.5a1,1,0,1,1,1.94.5l-2.2,8.5A10.71,10.71,0,0,1,166.87,199.43Z"/><path d="M148.69,173.18a6.45,6.45,0,0,1-4.56-1.83L125.54,153a1,1,0,1,1,1.4-1.42l18.6,18.4a4.59,4.59,0,0,0,4.18,1.13l27-6a1,1,0,1,1,.44,2l-27,6A7.35,7.35,0,0,1,148.69,173.18Z"/><path class="cls-4" d="M136.44,190.94s4.5,12-11.1,9.3c0,0,19.4,8.6,29.6-4.6Z"/></g></g></g></svg>